<mxfile host="app.diagrams.net" modified="2023-07-27T18:29:41.615Z" agent="Mozilla/5.0 (Windows NT 10.0; Win64; x64) AppleWebKit/537.36 (KHTML, like Gecko) Chrome/115.0.0.0 Safari/537.36" etag="9fY2W6J3tv_dUgX-7RDr" version="21.6.5" type="device" pages="2">
  <diagram name="Página-1" id="j8DgNB-0Ha-pH_vcxJ_H">
    <mxGraphModel dx="3047" dy="1195" grid="1" gridSize="10" guides="1" tooltips="1" connect="1" arrows="1" fold="1" page="1" pageScale="1" pageWidth="827" pageHeight="1169" math="0" shadow="0">
      <root>
        <mxCell id="0" />
        <mxCell id="1" parent="0" />
        <mxCell id="sJoOIRErsdjMJZ4PqJDB-1" value="Conceitual" style="text;html=1;align=center;verticalAlign=middle;resizable=0;points=[];autosize=1;strokeColor=#82b366;fillColor=#d5e8d4;" vertex="1" parent="1">
          <mxGeometry x="460" y="40" width="80" height="30" as="geometry" />
        </mxCell>
        <mxCell id="sJoOIRErsdjMJZ4PqJDB-31" value="" style="edgeStyle=orthogonalEdgeStyle;rounded=0;orthogonalLoop=1;jettySize=auto;html=1;endArrow=none;endFill=0;" edge="1" parent="1" source="sJoOIRErsdjMJZ4PqJDB-2" target="sJoOIRErsdjMJZ4PqJDB-28">
          <mxGeometry relative="1" as="geometry" />
        </mxCell>
        <mxCell id="sJoOIRErsdjMJZ4PqJDB-55" value="" style="edgeStyle=orthogonalEdgeStyle;rounded=0;orthogonalLoop=1;jettySize=auto;html=1;" edge="1" parent="1" source="sJoOIRErsdjMJZ4PqJDB-2" target="sJoOIRErsdjMJZ4PqJDB-28">
          <mxGeometry relative="1" as="geometry" />
        </mxCell>
        <mxCell id="sJoOIRErsdjMJZ4PqJDB-2" value="TipoPet" style="rounded=0;whiteSpace=wrap;html=1;fillColor=#bac8d3;strokeColor=#23445d;" vertex="1" parent="1">
          <mxGeometry x="780" y="780" width="120" height="60" as="geometry" />
        </mxCell>
        <mxCell id="sJoOIRErsdjMJZ4PqJDB-27" value="" style="edgeStyle=orthogonalEdgeStyle;rounded=0;orthogonalLoop=1;jettySize=auto;html=1;endArrow=none;endFill=0;" edge="1" parent="1" source="sJoOIRErsdjMJZ4PqJDB-3" target="sJoOIRErsdjMJZ4PqJDB-21">
          <mxGeometry relative="1" as="geometry" />
        </mxCell>
        <mxCell id="sJoOIRErsdjMJZ4PqJDB-3" value="Raça" style="rounded=0;whiteSpace=wrap;html=1;fillColor=#b0e3e6;strokeColor=#0e8088;" vertex="1" parent="1">
          <mxGeometry x="780" y="560" width="120" height="60" as="geometry" />
        </mxCell>
        <mxCell id="sJoOIRErsdjMJZ4PqJDB-25" value="" style="edgeStyle=orthogonalEdgeStyle;rounded=0;orthogonalLoop=1;jettySize=auto;html=1;endArrow=none;endFill=0;" edge="1" parent="1" source="sJoOIRErsdjMJZ4PqJDB-4" target="sJoOIRErsdjMJZ4PqJDB-20">
          <mxGeometry relative="1" as="geometry" />
        </mxCell>
        <mxCell id="sJoOIRErsdjMJZ4PqJDB-4" value="Pet" style="rounded=0;whiteSpace=wrap;html=1;fillColor=#ffe6cc;strokeColor=#d79b00;" vertex="1" parent="1">
          <mxGeometry x="780" y="340" width="120" height="60" as="geometry" />
        </mxCell>
        <mxCell id="sJoOIRErsdjMJZ4PqJDB-22" value="" style="edgeStyle=orthogonalEdgeStyle;rounded=0;orthogonalLoop=1;jettySize=auto;html=1;endArrow=none;endFill=0;" edge="1" parent="1" source="sJoOIRErsdjMJZ4PqJDB-5" target="sJoOIRErsdjMJZ4PqJDB-12">
          <mxGeometry relative="1" as="geometry" />
        </mxCell>
        <mxCell id="sJoOIRErsdjMJZ4PqJDB-23" value="" style="edgeStyle=orthogonalEdgeStyle;rounded=0;orthogonalLoop=1;jettySize=auto;html=1;endArrow=none;endFill=0;" edge="1" parent="1" source="sJoOIRErsdjMJZ4PqJDB-5" target="sJoOIRErsdjMJZ4PqJDB-19">
          <mxGeometry relative="1" as="geometry" />
        </mxCell>
        <mxCell id="sJoOIRErsdjMJZ4PqJDB-5" value="Atendimento" style="rounded=0;whiteSpace=wrap;html=1;fillColor=#e1d5e7;strokeColor=#9673a6;" vertex="1" parent="1">
          <mxGeometry x="460" y="340" width="120" height="60" as="geometry" />
        </mxCell>
        <mxCell id="sJoOIRErsdjMJZ4PqJDB-13" value="" style="edgeStyle=orthogonalEdgeStyle;rounded=0;orthogonalLoop=1;jettySize=auto;html=1;endArrow=none;endFill=0;" edge="1" parent="1" source="sJoOIRErsdjMJZ4PqJDB-6" target="sJoOIRErsdjMJZ4PqJDB-9">
          <mxGeometry relative="1" as="geometry" />
        </mxCell>
        <mxCell id="sJoOIRErsdjMJZ4PqJDB-14" value="" style="edgeStyle=orthogonalEdgeStyle;rounded=0;orthogonalLoop=1;jettySize=auto;html=1;endArrow=none;endFill=0;" edge="1" parent="1" source="sJoOIRErsdjMJZ4PqJDB-6" target="sJoOIRErsdjMJZ4PqJDB-8">
          <mxGeometry relative="1" as="geometry" />
        </mxCell>
        <mxCell id="sJoOIRErsdjMJZ4PqJDB-6" value="Clínica" style="rounded=0;whiteSpace=wrap;html=1;fillColor=#dae8fc;strokeColor=#6c8ebf;" vertex="1" parent="1">
          <mxGeometry x="120" y="100" width="120" height="60" as="geometry" />
        </mxCell>
        <mxCell id="sJoOIRErsdjMJZ4PqJDB-15" value="" style="edgeStyle=orthogonalEdgeStyle;rounded=0;orthogonalLoop=1;jettySize=auto;html=1;endArrow=none;endFill=0;" edge="1" parent="1" source="sJoOIRErsdjMJZ4PqJDB-7" target="sJoOIRErsdjMJZ4PqJDB-9">
          <mxGeometry relative="1" as="geometry" />
        </mxCell>
        <mxCell id="sJoOIRErsdjMJZ4PqJDB-17" value="" style="edgeStyle=orthogonalEdgeStyle;rounded=0;orthogonalLoop=1;jettySize=auto;html=1;endArrow=none;endFill=0;" edge="1" parent="1" source="sJoOIRErsdjMJZ4PqJDB-7" target="sJoOIRErsdjMJZ4PqJDB-11">
          <mxGeometry relative="1" as="geometry" />
        </mxCell>
        <mxCell id="sJoOIRErsdjMJZ4PqJDB-44" value="" style="edgeStyle=orthogonalEdgeStyle;rounded=0;orthogonalLoop=1;jettySize=auto;html=1;" edge="1" parent="1" source="sJoOIRErsdjMJZ4PqJDB-7" target="sJoOIRErsdjMJZ4PqJDB-9">
          <mxGeometry relative="1" as="geometry" />
        </mxCell>
        <mxCell id="sJoOIRErsdjMJZ4PqJDB-7" value="Veterinário" style="rounded=0;whiteSpace=wrap;html=1;fillColor=#f8cecc;strokeColor=#b85450;" vertex="1" parent="1">
          <mxGeometry x="120" y="340" width="120" height="60" as="geometry" />
        </mxCell>
        <mxCell id="sJoOIRErsdjMJZ4PqJDB-8" value="Endereço" style="ellipse;whiteSpace=wrap;html=1;fillColor=#fff2cc;strokeColor=#d6b656;" vertex="1" parent="1">
          <mxGeometry x="-40" y="110" width="120" height="40" as="geometry" />
        </mxCell>
        <mxCell id="sJoOIRErsdjMJZ4PqJDB-9" value="Possui" style="rhombus;whiteSpace=wrap;html=1;fillColor=#f5f5f5;fontColor=#333333;strokeColor=#666666;" vertex="1" parent="1">
          <mxGeometry x="140" y="210" width="80" height="80" as="geometry" />
        </mxCell>
        <mxCell id="sJoOIRErsdjMJZ4PqJDB-16" value="" style="edgeStyle=orthogonalEdgeStyle;rounded=0;orthogonalLoop=1;jettySize=auto;html=1;endArrow=none;endFill=0;" edge="1" parent="1" source="sJoOIRErsdjMJZ4PqJDB-10" target="sJoOIRErsdjMJZ4PqJDB-7">
          <mxGeometry relative="1" as="geometry" />
        </mxCell>
        <mxCell id="sJoOIRErsdjMJZ4PqJDB-10" value="Nome" style="ellipse;whiteSpace=wrap;html=1;fillColor=#fff2cc;strokeColor=#d6b656;" vertex="1" parent="1">
          <mxGeometry x="-40" y="350" width="120" height="40" as="geometry" />
        </mxCell>
        <mxCell id="sJoOIRErsdjMJZ4PqJDB-18" value="" style="edgeStyle=orthogonalEdgeStyle;rounded=0;orthogonalLoop=1;jettySize=auto;html=1;endArrow=none;endFill=0;" edge="1" parent="1" source="sJoOIRErsdjMJZ4PqJDB-11" target="sJoOIRErsdjMJZ4PqJDB-5">
          <mxGeometry relative="1" as="geometry" />
        </mxCell>
        <mxCell id="sJoOIRErsdjMJZ4PqJDB-11" value="Possui" style="rhombus;whiteSpace=wrap;html=1;fillColor=#f5f5f5;fontColor=#333333;strokeColor=#666666;" vertex="1" parent="1">
          <mxGeometry x="320" y="330" width="80" height="80" as="geometry" />
        </mxCell>
        <mxCell id="sJoOIRErsdjMJZ4PqJDB-12" value="Data" style="ellipse;whiteSpace=wrap;html=1;fillColor=#fff2cc;strokeColor=#d6b656;" vertex="1" parent="1">
          <mxGeometry x="460" y="260" width="120" height="40" as="geometry" />
        </mxCell>
        <mxCell id="sJoOIRErsdjMJZ4PqJDB-24" value="" style="edgeStyle=orthogonalEdgeStyle;rounded=0;orthogonalLoop=1;jettySize=auto;html=1;endArrow=none;endFill=0;" edge="1" parent="1" source="sJoOIRErsdjMJZ4PqJDB-19" target="sJoOIRErsdjMJZ4PqJDB-4">
          <mxGeometry relative="1" as="geometry" />
        </mxCell>
        <mxCell id="sJoOIRErsdjMJZ4PqJDB-19" value="Possui" style="rhombus;whiteSpace=wrap;html=1;fillColor=#f5f5f5;fontColor=#333333;strokeColor=#666666;" vertex="1" parent="1">
          <mxGeometry x="640" y="330" width="80" height="80" as="geometry" />
        </mxCell>
        <mxCell id="sJoOIRErsdjMJZ4PqJDB-26" value="" style="edgeStyle=orthogonalEdgeStyle;rounded=0;orthogonalLoop=1;jettySize=auto;html=1;endArrow=none;endFill=0;" edge="1" parent="1" source="sJoOIRErsdjMJZ4PqJDB-20" target="sJoOIRErsdjMJZ4PqJDB-3">
          <mxGeometry relative="1" as="geometry" />
        </mxCell>
        <mxCell id="sJoOIRErsdjMJZ4PqJDB-20" value="Possui" style="rhombus;whiteSpace=wrap;html=1;fillColor=#f5f5f5;fontColor=#333333;strokeColor=#666666;" vertex="1" parent="1">
          <mxGeometry x="800" y="440" width="80" height="80" as="geometry" />
        </mxCell>
        <mxCell id="sJoOIRErsdjMJZ4PqJDB-21" value="Nome" style="ellipse;whiteSpace=wrap;html=1;fillColor=#fff2cc;strokeColor=#d6b656;" vertex="1" parent="1">
          <mxGeometry x="960" y="570" width="120" height="40" as="geometry" />
        </mxCell>
        <mxCell id="sJoOIRErsdjMJZ4PqJDB-32" value="" style="edgeStyle=orthogonalEdgeStyle;rounded=0;orthogonalLoop=1;jettySize=auto;html=1;endArrow=none;endFill=0;" edge="1" parent="1" source="sJoOIRErsdjMJZ4PqJDB-28" target="sJoOIRErsdjMJZ4PqJDB-3">
          <mxGeometry relative="1" as="geometry" />
        </mxCell>
        <mxCell id="sJoOIRErsdjMJZ4PqJDB-28" value="Possui" style="rhombus;whiteSpace=wrap;html=1;fillColor=#f5f5f5;fontColor=#333333;strokeColor=#666666;" vertex="1" parent="1">
          <mxGeometry x="800" y="660" width="80" height="80" as="geometry" />
        </mxCell>
        <mxCell id="sJoOIRErsdjMJZ4PqJDB-30" value="" style="edgeStyle=orthogonalEdgeStyle;rounded=0;orthogonalLoop=1;jettySize=auto;html=1;endArrow=none;endFill=0;" edge="1" parent="1" source="sJoOIRErsdjMJZ4PqJDB-29" target="sJoOIRErsdjMJZ4PqJDB-2">
          <mxGeometry relative="1" as="geometry" />
        </mxCell>
        <mxCell id="sJoOIRErsdjMJZ4PqJDB-29" value="Nome" style="ellipse;whiteSpace=wrap;html=1;fillColor=#fff2cc;strokeColor=#d6b656;" vertex="1" parent="1">
          <mxGeometry x="780" y="930" width="120" height="40" as="geometry" />
        </mxCell>
        <mxCell id="sJoOIRErsdjMJZ4PqJDB-35" style="edgeStyle=orthogonalEdgeStyle;rounded=0;orthogonalLoop=1;jettySize=auto;html=1;entryX=1;entryY=0.5;entryDx=0;entryDy=0;endArrow=none;endFill=0;" edge="1" parent="1" source="sJoOIRErsdjMJZ4PqJDB-33" target="sJoOIRErsdjMJZ4PqJDB-4">
          <mxGeometry relative="1" as="geometry" />
        </mxCell>
        <mxCell id="sJoOIRErsdjMJZ4PqJDB-33" value="Nome" style="ellipse;whiteSpace=wrap;html=1;fillColor=#fff2cc;strokeColor=#d6b656;" vertex="1" parent="1">
          <mxGeometry x="950" y="310" width="120" height="40" as="geometry" />
        </mxCell>
        <mxCell id="sJoOIRErsdjMJZ4PqJDB-36" style="edgeStyle=orthogonalEdgeStyle;rounded=0;orthogonalLoop=1;jettySize=auto;html=1;entryX=1;entryY=0.5;entryDx=0;entryDy=0;endArrow=none;endFill=0;" edge="1" parent="1" source="sJoOIRErsdjMJZ4PqJDB-34" target="sJoOIRErsdjMJZ4PqJDB-4">
          <mxGeometry relative="1" as="geometry" />
        </mxCell>
        <mxCell id="sJoOIRErsdjMJZ4PqJDB-34" value="DataNascimento" style="ellipse;whiteSpace=wrap;html=1;fillColor=#fff2cc;strokeColor=#d6b656;" vertex="1" parent="1">
          <mxGeometry x="950" y="380" width="120" height="40" as="geometry" />
        </mxCell>
        <mxCell id="sJoOIRErsdjMJZ4PqJDB-41" value="" style="edgeStyle=orthogonalEdgeStyle;rounded=0;orthogonalLoop=1;jettySize=auto;html=1;endArrow=none;endFill=0;" edge="1" parent="1" source="sJoOIRErsdjMJZ4PqJDB-39" target="sJoOIRErsdjMJZ4PqJDB-4">
          <mxGeometry relative="1" as="geometry" />
        </mxCell>
        <mxCell id="sJoOIRErsdjMJZ4PqJDB-50" value="N" style="edgeLabel;html=1;align=center;verticalAlign=middle;resizable=0;points=[];" vertex="1" connectable="0" parent="sJoOIRErsdjMJZ4PqJDB-41">
          <mxGeometry x="0.3143" y="7" relative="1" as="geometry">
            <mxPoint y="1" as="offset" />
          </mxGeometry>
        </mxCell>
        <mxCell id="sJoOIRErsdjMJZ4PqJDB-39" value="Possui" style="rhombus;whiteSpace=wrap;html=1;fillColor=#f5f5f5;fontColor=#333333;strokeColor=#666666;" vertex="1" parent="1">
          <mxGeometry x="800" y="220" width="80" height="80" as="geometry" />
        </mxCell>
        <mxCell id="sJoOIRErsdjMJZ4PqJDB-42" value="" style="edgeStyle=orthogonalEdgeStyle;rounded=0;orthogonalLoop=1;jettySize=auto;html=1;endArrow=none;endFill=0;" edge="1" parent="1" source="sJoOIRErsdjMJZ4PqJDB-40" target="sJoOIRErsdjMJZ4PqJDB-39">
          <mxGeometry relative="1" as="geometry" />
        </mxCell>
        <mxCell id="sJoOIRErsdjMJZ4PqJDB-40" value="Dono" style="rounded=0;whiteSpace=wrap;html=1;fillColor=#b1ddf0;strokeColor=#10739e;" vertex="1" parent="1">
          <mxGeometry x="780" y="120" width="120" height="60" as="geometry" />
        </mxCell>
        <mxCell id="sJoOIRErsdjMJZ4PqJDB-43" value="1" style="text;html=1;align=center;verticalAlign=middle;resizable=0;points=[];autosize=1;strokeColor=none;fillColor=none;" vertex="1" parent="1">
          <mxGeometry x="175" y="158" width="30" height="30" as="geometry" />
        </mxCell>
        <mxCell id="sJoOIRErsdjMJZ4PqJDB-45" value="N" style="text;html=1;align=center;verticalAlign=middle;resizable=0;points=[];autosize=1;strokeColor=none;fillColor=none;" vertex="1" parent="1">
          <mxGeometry x="175" y="308" width="30" height="30" as="geometry" />
        </mxCell>
        <mxCell id="sJoOIRErsdjMJZ4PqJDB-46" value="1" style="text;html=1;align=center;verticalAlign=middle;resizable=0;points=[];autosize=1;strokeColor=none;fillColor=none;" vertex="1" parent="1">
          <mxGeometry x="235" y="338" width="30" height="30" as="geometry" />
        </mxCell>
        <mxCell id="sJoOIRErsdjMJZ4PqJDB-47" value="N" style="text;html=1;align=center;verticalAlign=middle;resizable=0;points=[];autosize=1;strokeColor=none;fillColor=none;" vertex="1" parent="1">
          <mxGeometry x="435" y="338" width="30" height="30" as="geometry" />
        </mxCell>
        <mxCell id="sJoOIRErsdjMJZ4PqJDB-48" value="N" style="text;html=1;align=center;verticalAlign=middle;resizable=0;points=[];autosize=1;strokeColor=none;fillColor=none;" vertex="1" parent="1">
          <mxGeometry x="580" y="340" width="30" height="30" as="geometry" />
        </mxCell>
        <mxCell id="sJoOIRErsdjMJZ4PqJDB-49" value="1" style="text;html=1;align=center;verticalAlign=middle;resizable=0;points=[];autosize=1;strokeColor=none;fillColor=none;" vertex="1" parent="1">
          <mxGeometry x="750" y="340" width="30" height="30" as="geometry" />
        </mxCell>
        <mxCell id="sJoOIRErsdjMJZ4PqJDB-51" value="1" style="text;html=1;align=center;verticalAlign=middle;resizable=0;points=[];autosize=1;strokeColor=none;fillColor=none;" vertex="1" parent="1">
          <mxGeometry x="830" y="180" width="30" height="30" as="geometry" />
        </mxCell>
        <mxCell id="sJoOIRErsdjMJZ4PqJDB-52" value="N" style="text;html=1;align=center;verticalAlign=middle;resizable=0;points=[];autosize=1;strokeColor=none;fillColor=none;" vertex="1" parent="1">
          <mxGeometry x="835" y="398" width="30" height="30" as="geometry" />
        </mxCell>
        <mxCell id="sJoOIRErsdjMJZ4PqJDB-53" value="1" style="text;html=1;align=center;verticalAlign=middle;resizable=0;points=[];autosize=1;strokeColor=none;fillColor=none;" vertex="1" parent="1">
          <mxGeometry x="835" y="538" width="30" height="30" as="geometry" />
        </mxCell>
        <mxCell id="sJoOIRErsdjMJZ4PqJDB-54" value="N" style="text;html=1;align=center;verticalAlign=middle;resizable=0;points=[];autosize=1;strokeColor=none;fillColor=none;" vertex="1" parent="1">
          <mxGeometry x="845" y="618" width="30" height="30" as="geometry" />
        </mxCell>
        <mxCell id="sJoOIRErsdjMJZ4PqJDB-56" value="1" style="text;html=1;align=center;verticalAlign=middle;resizable=0;points=[];autosize=1;strokeColor=none;fillColor=none;" vertex="1" parent="1">
          <mxGeometry x="835" y="748" width="30" height="30" as="geometry" />
        </mxCell>
        <mxCell id="sJoOIRErsdjMJZ4PqJDB-57" value="Lógico" style="text;html=1;align=center;verticalAlign=middle;resizable=0;points=[];autosize=1;strokeColor=#82b366;fillColor=#d5e8d4;" vertex="1" parent="1">
          <mxGeometry x="1390" y="80" width="60" height="30" as="geometry" />
        </mxCell>
        <mxCell id="sJoOIRErsdjMJZ4PqJDB-58" value="Dono" style="shape=table;startSize=30;container=1;collapsible=1;childLayout=tableLayout;fixedRows=1;rowLines=0;fontStyle=1;align=center;resizeLast=1;html=1;fillColor=#b1ddf0;strokeColor=#10739e;" vertex="1" parent="1">
          <mxGeometry x="1320" y="160" width="180" height="90" as="geometry" />
        </mxCell>
        <mxCell id="sJoOIRErsdjMJZ4PqJDB-59" value="" style="shape=tableRow;horizontal=0;startSize=0;swimlaneHead=0;swimlaneBody=0;fillColor=none;collapsible=0;dropTarget=0;points=[[0,0.5],[1,0.5]];portConstraint=eastwest;top=0;left=0;right=0;bottom=1;" vertex="1" parent="sJoOIRErsdjMJZ4PqJDB-58">
          <mxGeometry y="30" width="180" height="30" as="geometry" />
        </mxCell>
        <mxCell id="sJoOIRErsdjMJZ4PqJDB-60" value="PK" style="shape=partialRectangle;connectable=0;fillColor=none;top=0;left=0;bottom=0;right=0;fontStyle=1;overflow=hidden;whiteSpace=wrap;html=1;" vertex="1" parent="sJoOIRErsdjMJZ4PqJDB-59">
          <mxGeometry width="30" height="30" as="geometry">
            <mxRectangle width="30" height="30" as="alternateBounds" />
          </mxGeometry>
        </mxCell>
        <mxCell id="sJoOIRErsdjMJZ4PqJDB-61" value="IdDono" style="shape=partialRectangle;connectable=0;fillColor=none;top=0;left=0;bottom=0;right=0;align=left;spacingLeft=6;fontStyle=5;overflow=hidden;whiteSpace=wrap;html=1;" vertex="1" parent="sJoOIRErsdjMJZ4PqJDB-59">
          <mxGeometry x="30" width="150" height="30" as="geometry">
            <mxRectangle width="150" height="30" as="alternateBounds" />
          </mxGeometry>
        </mxCell>
        <mxCell id="sJoOIRErsdjMJZ4PqJDB-62" value="" style="shape=tableRow;horizontal=0;startSize=0;swimlaneHead=0;swimlaneBody=0;fillColor=none;collapsible=0;dropTarget=0;points=[[0,0.5],[1,0.5]];portConstraint=eastwest;top=0;left=0;right=0;bottom=0;" vertex="1" parent="sJoOIRErsdjMJZ4PqJDB-58">
          <mxGeometry y="60" width="180" height="30" as="geometry" />
        </mxCell>
        <mxCell id="sJoOIRErsdjMJZ4PqJDB-63" value="" style="shape=partialRectangle;connectable=0;fillColor=none;top=0;left=0;bottom=0;right=0;editable=1;overflow=hidden;whiteSpace=wrap;html=1;" vertex="1" parent="sJoOIRErsdjMJZ4PqJDB-62">
          <mxGeometry width="30" height="30" as="geometry">
            <mxRectangle width="30" height="30" as="alternateBounds" />
          </mxGeometry>
        </mxCell>
        <mxCell id="sJoOIRErsdjMJZ4PqJDB-64" value="Nome" style="shape=partialRectangle;connectable=0;fillColor=none;top=0;left=0;bottom=0;right=0;align=left;spacingLeft=6;overflow=hidden;whiteSpace=wrap;html=1;" vertex="1" parent="sJoOIRErsdjMJZ4PqJDB-62">
          <mxGeometry x="30" width="150" height="30" as="geometry">
            <mxRectangle width="150" height="30" as="alternateBounds" />
          </mxGeometry>
        </mxCell>
        <mxCell id="sJoOIRErsdjMJZ4PqJDB-73" value="" style="edgeStyle=orthogonalEdgeStyle;rounded=0;orthogonalLoop=1;jettySize=auto;html=1;endArrow=none;endFill=0;" edge="1" parent="1" source="sJoOIRErsdjMJZ4PqJDB-71" target="sJoOIRErsdjMJZ4PqJDB-40">
          <mxGeometry relative="1" as="geometry" />
        </mxCell>
        <mxCell id="sJoOIRErsdjMJZ4PqJDB-71" value="Nome" style="ellipse;whiteSpace=wrap;html=1;fillColor=#fff2cc;strokeColor=#d6b656;" vertex="1" parent="1">
          <mxGeometry x="780" y="20" width="120" height="40" as="geometry" />
        </mxCell>
        <mxCell id="sJoOIRErsdjMJZ4PqJDB-74" value="TipoPet" style="shape=table;startSize=30;container=1;collapsible=1;childLayout=tableLayout;fixedRows=1;rowLines=0;fontStyle=1;align=center;resizeLast=1;html=1;fillColor=#bac8d3;strokeColor=#23445d;" vertex="1" parent="1">
          <mxGeometry x="1200" y="520" width="180" height="90" as="geometry" />
        </mxCell>
        <mxCell id="sJoOIRErsdjMJZ4PqJDB-75" value="" style="shape=tableRow;horizontal=0;startSize=0;swimlaneHead=0;swimlaneBody=0;fillColor=none;collapsible=0;dropTarget=0;points=[[0,0.5],[1,0.5]];portConstraint=eastwest;top=0;left=0;right=0;bottom=1;" vertex="1" parent="sJoOIRErsdjMJZ4PqJDB-74">
          <mxGeometry y="30" width="180" height="30" as="geometry" />
        </mxCell>
        <mxCell id="sJoOIRErsdjMJZ4PqJDB-76" value="PK" style="shape=partialRectangle;connectable=0;fillColor=none;top=0;left=0;bottom=0;right=0;fontStyle=1;overflow=hidden;whiteSpace=wrap;html=1;" vertex="1" parent="sJoOIRErsdjMJZ4PqJDB-75">
          <mxGeometry width="30" height="30" as="geometry">
            <mxRectangle width="30" height="30" as="alternateBounds" />
          </mxGeometry>
        </mxCell>
        <mxCell id="sJoOIRErsdjMJZ4PqJDB-77" value="IdTipoPet" style="shape=partialRectangle;connectable=0;fillColor=none;top=0;left=0;bottom=0;right=0;align=left;spacingLeft=6;fontStyle=5;overflow=hidden;whiteSpace=wrap;html=1;" vertex="1" parent="sJoOIRErsdjMJZ4PqJDB-75">
          <mxGeometry x="30" width="150" height="30" as="geometry">
            <mxRectangle width="150" height="30" as="alternateBounds" />
          </mxGeometry>
        </mxCell>
        <mxCell id="sJoOIRErsdjMJZ4PqJDB-78" value="" style="shape=tableRow;horizontal=0;startSize=0;swimlaneHead=0;swimlaneBody=0;fillColor=none;collapsible=0;dropTarget=0;points=[[0,0.5],[1,0.5]];portConstraint=eastwest;top=0;left=0;right=0;bottom=0;" vertex="1" parent="sJoOIRErsdjMJZ4PqJDB-74">
          <mxGeometry y="60" width="180" height="30" as="geometry" />
        </mxCell>
        <mxCell id="sJoOIRErsdjMJZ4PqJDB-79" value="" style="shape=partialRectangle;connectable=0;fillColor=none;top=0;left=0;bottom=0;right=0;editable=1;overflow=hidden;whiteSpace=wrap;html=1;" vertex="1" parent="sJoOIRErsdjMJZ4PqJDB-78">
          <mxGeometry width="30" height="30" as="geometry">
            <mxRectangle width="30" height="30" as="alternateBounds" />
          </mxGeometry>
        </mxCell>
        <mxCell id="sJoOIRErsdjMJZ4PqJDB-80" value="Nome" style="shape=partialRectangle;connectable=0;fillColor=none;top=0;left=0;bottom=0;right=0;align=left;spacingLeft=6;overflow=hidden;whiteSpace=wrap;html=1;" vertex="1" parent="sJoOIRErsdjMJZ4PqJDB-78">
          <mxGeometry x="30" width="150" height="30" as="geometry">
            <mxRectangle width="150" height="30" as="alternateBounds" />
          </mxGeometry>
        </mxCell>
        <mxCell id="sJoOIRErsdjMJZ4PqJDB-88" value="Raça" style="shape=table;startSize=30;container=1;collapsible=1;childLayout=tableLayout;fixedRows=1;rowLines=0;fontStyle=1;align=center;resizeLast=1;html=1;whiteSpace=wrap;fillColor=#b0e3e6;strokeColor=#0e8088;" vertex="1" parent="1">
          <mxGeometry x="1300" y="330" width="180" height="120" as="geometry" />
        </mxCell>
        <mxCell id="sJoOIRErsdjMJZ4PqJDB-89" value="" style="shape=tableRow;horizontal=0;startSize=0;swimlaneHead=0;swimlaneBody=0;fillColor=none;collapsible=0;dropTarget=0;points=[[0,0.5],[1,0.5]];portConstraint=eastwest;top=0;left=0;right=0;bottom=0;html=1;" vertex="1" parent="sJoOIRErsdjMJZ4PqJDB-88">
          <mxGeometry y="30" width="180" height="30" as="geometry" />
        </mxCell>
        <mxCell id="sJoOIRErsdjMJZ4PqJDB-90" value="PK" style="shape=partialRectangle;connectable=0;fillColor=none;top=0;left=0;bottom=0;right=0;fontStyle=1;overflow=hidden;html=1;whiteSpace=wrap;" vertex="1" parent="sJoOIRErsdjMJZ4PqJDB-89">
          <mxGeometry width="60" height="30" as="geometry">
            <mxRectangle width="60" height="30" as="alternateBounds" />
          </mxGeometry>
        </mxCell>
        <mxCell id="sJoOIRErsdjMJZ4PqJDB-91" value="IdRaça" style="shape=partialRectangle;connectable=0;fillColor=none;top=0;left=0;bottom=0;right=0;align=left;spacingLeft=6;fontStyle=5;overflow=hidden;html=1;whiteSpace=wrap;" vertex="1" parent="sJoOIRErsdjMJZ4PqJDB-89">
          <mxGeometry x="60" width="120" height="30" as="geometry">
            <mxRectangle width="120" height="30" as="alternateBounds" />
          </mxGeometry>
        </mxCell>
        <mxCell id="sJoOIRErsdjMJZ4PqJDB-92" value="" style="shape=tableRow;horizontal=0;startSize=0;swimlaneHead=0;swimlaneBody=0;fillColor=none;collapsible=0;dropTarget=0;points=[[0,0.5],[1,0.5]];portConstraint=eastwest;top=0;left=0;right=0;bottom=1;html=1;" vertex="1" parent="sJoOIRErsdjMJZ4PqJDB-88">
          <mxGeometry y="60" width="180" height="30" as="geometry" />
        </mxCell>
        <mxCell id="sJoOIRErsdjMJZ4PqJDB-93" value="FK" style="shape=partialRectangle;connectable=0;fillColor=none;top=0;left=0;bottom=0;right=0;fontStyle=1;overflow=hidden;html=1;whiteSpace=wrap;" vertex="1" parent="sJoOIRErsdjMJZ4PqJDB-92">
          <mxGeometry width="60" height="30" as="geometry">
            <mxRectangle width="60" height="30" as="alternateBounds" />
          </mxGeometry>
        </mxCell>
        <mxCell id="sJoOIRErsdjMJZ4PqJDB-94" value="IdTipoPet" style="shape=partialRectangle;connectable=0;fillColor=none;top=0;left=0;bottom=0;right=0;align=left;spacingLeft=6;fontStyle=5;overflow=hidden;html=1;whiteSpace=wrap;" vertex="1" parent="sJoOIRErsdjMJZ4PqJDB-92">
          <mxGeometry x="60" width="120" height="30" as="geometry">
            <mxRectangle width="120" height="30" as="alternateBounds" />
          </mxGeometry>
        </mxCell>
        <mxCell id="sJoOIRErsdjMJZ4PqJDB-95" value="" style="shape=tableRow;horizontal=0;startSize=0;swimlaneHead=0;swimlaneBody=0;fillColor=none;collapsible=0;dropTarget=0;points=[[0,0.5],[1,0.5]];portConstraint=eastwest;top=0;left=0;right=0;bottom=0;html=1;" vertex="1" parent="sJoOIRErsdjMJZ4PqJDB-88">
          <mxGeometry y="90" width="180" height="30" as="geometry" />
        </mxCell>
        <mxCell id="sJoOIRErsdjMJZ4PqJDB-96" value="" style="shape=partialRectangle;connectable=0;fillColor=none;top=0;left=0;bottom=0;right=0;editable=1;overflow=hidden;html=1;whiteSpace=wrap;" vertex="1" parent="sJoOIRErsdjMJZ4PqJDB-95">
          <mxGeometry width="60" height="30" as="geometry">
            <mxRectangle width="60" height="30" as="alternateBounds" />
          </mxGeometry>
        </mxCell>
        <mxCell id="sJoOIRErsdjMJZ4PqJDB-97" value="Nome" style="shape=partialRectangle;connectable=0;fillColor=none;top=0;left=0;bottom=0;right=0;align=left;spacingLeft=6;overflow=hidden;html=1;whiteSpace=wrap;" vertex="1" parent="sJoOIRErsdjMJZ4PqJDB-95">
          <mxGeometry x="60" width="120" height="30" as="geometry">
            <mxRectangle width="120" height="30" as="alternateBounds" />
          </mxGeometry>
        </mxCell>
        <mxCell id="sJoOIRErsdjMJZ4PqJDB-111" value="Pet" style="shape=table;startSize=30;container=1;collapsible=1;childLayout=tableLayout;fixedRows=1;rowLines=0;fontStyle=1;align=center;resizeLast=1;html=1;whiteSpace=wrap;fillColor=#ffe6cc;strokeColor=#d79b00;" vertex="1" parent="1">
          <mxGeometry x="1760" width="180" height="150" as="geometry" />
        </mxCell>
        <mxCell id="sJoOIRErsdjMJZ4PqJDB-112" value="" style="shape=tableRow;horizontal=0;startSize=0;swimlaneHead=0;swimlaneBody=0;fillColor=none;collapsible=0;dropTarget=0;points=[[0,0.5],[1,0.5]];portConstraint=eastwest;top=0;left=0;right=0;bottom=0;html=1;" vertex="1" parent="sJoOIRErsdjMJZ4PqJDB-111">
          <mxGeometry y="30" width="180" height="30" as="geometry" />
        </mxCell>
        <mxCell id="sJoOIRErsdjMJZ4PqJDB-113" value="FK" style="shape=partialRectangle;connectable=0;fillColor=none;top=0;left=0;bottom=0;right=0;fontStyle=1;overflow=hidden;html=1;whiteSpace=wrap;" vertex="1" parent="sJoOIRErsdjMJZ4PqJDB-112">
          <mxGeometry width="60" height="30" as="geometry">
            <mxRectangle width="60" height="30" as="alternateBounds" />
          </mxGeometry>
        </mxCell>
        <mxCell id="sJoOIRErsdjMJZ4PqJDB-114" value="IdDono" style="shape=partialRectangle;connectable=0;fillColor=none;top=0;left=0;bottom=0;right=0;align=left;spacingLeft=6;fontStyle=5;overflow=hidden;html=1;whiteSpace=wrap;" vertex="1" parent="sJoOIRErsdjMJZ4PqJDB-112">
          <mxGeometry x="60" width="120" height="30" as="geometry">
            <mxRectangle width="120" height="30" as="alternateBounds" />
          </mxGeometry>
        </mxCell>
        <mxCell id="sJoOIRErsdjMJZ4PqJDB-115" value="" style="shape=tableRow;horizontal=0;startSize=0;swimlaneHead=0;swimlaneBody=0;fillColor=none;collapsible=0;dropTarget=0;points=[[0,0.5],[1,0.5]];portConstraint=eastwest;top=0;left=0;right=0;bottom=1;html=1;" vertex="1" parent="sJoOIRErsdjMJZ4PqJDB-111">
          <mxGeometry y="60" width="180" height="30" as="geometry" />
        </mxCell>
        <mxCell id="sJoOIRErsdjMJZ4PqJDB-116" value="FK" style="shape=partialRectangle;connectable=0;fillColor=none;top=0;left=0;bottom=0;right=0;fontStyle=1;overflow=hidden;html=1;whiteSpace=wrap;" vertex="1" parent="sJoOIRErsdjMJZ4PqJDB-115">
          <mxGeometry width="60" height="30" as="geometry">
            <mxRectangle width="60" height="30" as="alternateBounds" />
          </mxGeometry>
        </mxCell>
        <mxCell id="sJoOIRErsdjMJZ4PqJDB-117" value="IdRaca" style="shape=partialRectangle;connectable=0;fillColor=none;top=0;left=0;bottom=0;right=0;align=left;spacingLeft=6;fontStyle=5;overflow=hidden;html=1;whiteSpace=wrap;" vertex="1" parent="sJoOIRErsdjMJZ4PqJDB-115">
          <mxGeometry x="60" width="120" height="30" as="geometry">
            <mxRectangle width="120" height="30" as="alternateBounds" />
          </mxGeometry>
        </mxCell>
        <mxCell id="sJoOIRErsdjMJZ4PqJDB-121" style="shape=tableRow;horizontal=0;startSize=0;swimlaneHead=0;swimlaneBody=0;fillColor=none;collapsible=0;dropTarget=0;points=[[0,0.5],[1,0.5]];portConstraint=eastwest;top=0;left=0;right=0;bottom=1;html=1;" vertex="1" parent="sJoOIRErsdjMJZ4PqJDB-111">
          <mxGeometry y="90" width="180" height="30" as="geometry" />
        </mxCell>
        <mxCell id="sJoOIRErsdjMJZ4PqJDB-122" value="PK" style="shape=partialRectangle;connectable=0;fillColor=none;top=0;left=0;bottom=0;right=0;fontStyle=1;overflow=hidden;html=1;whiteSpace=wrap;" vertex="1" parent="sJoOIRErsdjMJZ4PqJDB-121">
          <mxGeometry width="60" height="30" as="geometry">
            <mxRectangle width="60" height="30" as="alternateBounds" />
          </mxGeometry>
        </mxCell>
        <mxCell id="sJoOIRErsdjMJZ4PqJDB-123" value="IdPet" style="shape=partialRectangle;connectable=0;fillColor=none;top=0;left=0;bottom=0;right=0;align=left;spacingLeft=6;fontStyle=5;overflow=hidden;html=1;whiteSpace=wrap;" vertex="1" parent="sJoOIRErsdjMJZ4PqJDB-121">
          <mxGeometry x="60" width="120" height="30" as="geometry">
            <mxRectangle width="120" height="30" as="alternateBounds" />
          </mxGeometry>
        </mxCell>
        <mxCell id="sJoOIRErsdjMJZ4PqJDB-118" value="" style="shape=tableRow;horizontal=0;startSize=0;swimlaneHead=0;swimlaneBody=0;fillColor=none;collapsible=0;dropTarget=0;points=[[0,0.5],[1,0.5]];portConstraint=eastwest;top=0;left=0;right=0;bottom=0;html=1;" vertex="1" parent="sJoOIRErsdjMJZ4PqJDB-111">
          <mxGeometry y="120" width="180" height="30" as="geometry" />
        </mxCell>
        <mxCell id="sJoOIRErsdjMJZ4PqJDB-119" value="" style="shape=partialRectangle;connectable=0;fillColor=none;top=0;left=0;bottom=0;right=0;editable=1;overflow=hidden;html=1;whiteSpace=wrap;" vertex="1" parent="sJoOIRErsdjMJZ4PqJDB-118">
          <mxGeometry width="60" height="30" as="geometry">
            <mxRectangle width="60" height="30" as="alternateBounds" />
          </mxGeometry>
        </mxCell>
        <mxCell id="sJoOIRErsdjMJZ4PqJDB-120" value="Nome" style="shape=partialRectangle;connectable=0;fillColor=none;top=0;left=0;bottom=0;right=0;align=left;spacingLeft=6;overflow=hidden;html=1;whiteSpace=wrap;" vertex="1" parent="sJoOIRErsdjMJZ4PqJDB-118">
          <mxGeometry x="60" width="120" height="30" as="geometry">
            <mxRectangle width="120" height="30" as="alternateBounds" />
          </mxGeometry>
        </mxCell>
        <mxCell id="sJoOIRErsdjMJZ4PqJDB-124" value="Clínica" style="shape=table;startSize=30;container=1;collapsible=1;childLayout=tableLayout;fixedRows=1;rowLines=0;fontStyle=1;align=center;resizeLast=1;html=1;fillColor=#dae8fc;strokeColor=#6c8ebf;" vertex="1" parent="1">
          <mxGeometry x="2250" y="68" width="180" height="90" as="geometry" />
        </mxCell>
        <mxCell id="sJoOIRErsdjMJZ4PqJDB-125" value="" style="shape=tableRow;horizontal=0;startSize=0;swimlaneHead=0;swimlaneBody=0;fillColor=none;collapsible=0;dropTarget=0;points=[[0,0.5],[1,0.5]];portConstraint=eastwest;top=0;left=0;right=0;bottom=1;" vertex="1" parent="sJoOIRErsdjMJZ4PqJDB-124">
          <mxGeometry y="30" width="180" height="30" as="geometry" />
        </mxCell>
        <mxCell id="sJoOIRErsdjMJZ4PqJDB-126" value="PK" style="shape=partialRectangle;connectable=0;fillColor=none;top=0;left=0;bottom=0;right=0;fontStyle=1;overflow=hidden;whiteSpace=wrap;html=1;" vertex="1" parent="sJoOIRErsdjMJZ4PqJDB-125">
          <mxGeometry width="30" height="30" as="geometry">
            <mxRectangle width="30" height="30" as="alternateBounds" />
          </mxGeometry>
        </mxCell>
        <mxCell id="sJoOIRErsdjMJZ4PqJDB-127" value="IdClinica" style="shape=partialRectangle;connectable=0;fillColor=none;top=0;left=0;bottom=0;right=0;align=left;spacingLeft=6;fontStyle=5;overflow=hidden;whiteSpace=wrap;html=1;" vertex="1" parent="sJoOIRErsdjMJZ4PqJDB-125">
          <mxGeometry x="30" width="150" height="30" as="geometry">
            <mxRectangle width="150" height="30" as="alternateBounds" />
          </mxGeometry>
        </mxCell>
        <mxCell id="sJoOIRErsdjMJZ4PqJDB-128" value="" style="shape=tableRow;horizontal=0;startSize=0;swimlaneHead=0;swimlaneBody=0;fillColor=none;collapsible=0;dropTarget=0;points=[[0,0.5],[1,0.5]];portConstraint=eastwest;top=0;left=0;right=0;bottom=0;" vertex="1" parent="sJoOIRErsdjMJZ4PqJDB-124">
          <mxGeometry y="60" width="180" height="30" as="geometry" />
        </mxCell>
        <mxCell id="sJoOIRErsdjMJZ4PqJDB-129" value="" style="shape=partialRectangle;connectable=0;fillColor=none;top=0;left=0;bottom=0;right=0;editable=1;overflow=hidden;whiteSpace=wrap;html=1;" vertex="1" parent="sJoOIRErsdjMJZ4PqJDB-128">
          <mxGeometry width="30" height="30" as="geometry">
            <mxRectangle width="30" height="30" as="alternateBounds" />
          </mxGeometry>
        </mxCell>
        <mxCell id="sJoOIRErsdjMJZ4PqJDB-130" value="Endereço" style="shape=partialRectangle;connectable=0;fillColor=none;top=0;left=0;bottom=0;right=0;align=left;spacingLeft=6;overflow=hidden;whiteSpace=wrap;html=1;" vertex="1" parent="sJoOIRErsdjMJZ4PqJDB-128">
          <mxGeometry x="30" width="150" height="30" as="geometry">
            <mxRectangle width="150" height="30" as="alternateBounds" />
          </mxGeometry>
        </mxCell>
        <mxCell id="sJoOIRErsdjMJZ4PqJDB-131" value="Atendimento" style="shape=table;startSize=30;container=1;collapsible=1;childLayout=tableLayout;fixedRows=1;rowLines=0;fontStyle=1;align=center;resizeLast=1;html=1;whiteSpace=wrap;fillColor=#e1d5e7;strokeColor=#9673a6;" vertex="1" parent="1">
          <mxGeometry x="1640" y="300" width="180" height="150" as="geometry" />
        </mxCell>
        <mxCell id="sJoOIRErsdjMJZ4PqJDB-132" value="" style="shape=tableRow;horizontal=0;startSize=0;swimlaneHead=0;swimlaneBody=0;fillColor=none;collapsible=0;dropTarget=0;points=[[0,0.5],[1,0.5]];portConstraint=eastwest;top=0;left=0;right=0;bottom=0;html=1;" vertex="1" parent="sJoOIRErsdjMJZ4PqJDB-131">
          <mxGeometry y="30" width="180" height="30" as="geometry" />
        </mxCell>
        <mxCell id="sJoOIRErsdjMJZ4PqJDB-133" value="FK" style="shape=partialRectangle;connectable=0;fillColor=none;top=0;left=0;bottom=0;right=0;fontStyle=1;overflow=hidden;html=1;whiteSpace=wrap;" vertex="1" parent="sJoOIRErsdjMJZ4PqJDB-132">
          <mxGeometry width="60" height="30" as="geometry">
            <mxRectangle width="60" height="30" as="alternateBounds" />
          </mxGeometry>
        </mxCell>
        <mxCell id="sJoOIRErsdjMJZ4PqJDB-134" value="IdVeterinario" style="shape=partialRectangle;connectable=0;fillColor=none;top=0;left=0;bottom=0;right=0;align=left;spacingLeft=6;fontStyle=5;overflow=hidden;html=1;whiteSpace=wrap;" vertex="1" parent="sJoOIRErsdjMJZ4PqJDB-132">
          <mxGeometry x="60" width="120" height="30" as="geometry">
            <mxRectangle width="120" height="30" as="alternateBounds" />
          </mxGeometry>
        </mxCell>
        <mxCell id="sJoOIRErsdjMJZ4PqJDB-135" value="" style="shape=tableRow;horizontal=0;startSize=0;swimlaneHead=0;swimlaneBody=0;fillColor=none;collapsible=0;dropTarget=0;points=[[0,0.5],[1,0.5]];portConstraint=eastwest;top=0;left=0;right=0;bottom=1;html=1;" vertex="1" parent="sJoOIRErsdjMJZ4PqJDB-131">
          <mxGeometry y="60" width="180" height="30" as="geometry" />
        </mxCell>
        <mxCell id="sJoOIRErsdjMJZ4PqJDB-136" value="FK" style="shape=partialRectangle;connectable=0;fillColor=none;top=0;left=0;bottom=0;right=0;fontStyle=1;overflow=hidden;html=1;whiteSpace=wrap;" vertex="1" parent="sJoOIRErsdjMJZ4PqJDB-135">
          <mxGeometry width="60" height="30" as="geometry">
            <mxRectangle width="60" height="30" as="alternateBounds" />
          </mxGeometry>
        </mxCell>
        <mxCell id="sJoOIRErsdjMJZ4PqJDB-137" value="IdPet" style="shape=partialRectangle;connectable=0;fillColor=none;top=0;left=0;bottom=0;right=0;align=left;spacingLeft=6;fontStyle=5;overflow=hidden;html=1;whiteSpace=wrap;" vertex="1" parent="sJoOIRErsdjMJZ4PqJDB-135">
          <mxGeometry x="60" width="120" height="30" as="geometry">
            <mxRectangle width="120" height="30" as="alternateBounds" />
          </mxGeometry>
        </mxCell>
        <mxCell id="sJoOIRErsdjMJZ4PqJDB-138" style="shape=tableRow;horizontal=0;startSize=0;swimlaneHead=0;swimlaneBody=0;fillColor=none;collapsible=0;dropTarget=0;points=[[0,0.5],[1,0.5]];portConstraint=eastwest;top=0;left=0;right=0;bottom=1;html=1;" vertex="1" parent="sJoOIRErsdjMJZ4PqJDB-131">
          <mxGeometry y="90" width="180" height="30" as="geometry" />
        </mxCell>
        <mxCell id="sJoOIRErsdjMJZ4PqJDB-139" value="PK" style="shape=partialRectangle;connectable=0;fillColor=none;top=0;left=0;bottom=0;right=0;fontStyle=1;overflow=hidden;html=1;whiteSpace=wrap;" vertex="1" parent="sJoOIRErsdjMJZ4PqJDB-138">
          <mxGeometry width="60" height="30" as="geometry">
            <mxRectangle width="60" height="30" as="alternateBounds" />
          </mxGeometry>
        </mxCell>
        <mxCell id="sJoOIRErsdjMJZ4PqJDB-140" value="IdAtendimento" style="shape=partialRectangle;connectable=0;fillColor=none;top=0;left=0;bottom=0;right=0;align=left;spacingLeft=6;fontStyle=5;overflow=hidden;html=1;whiteSpace=wrap;" vertex="1" parent="sJoOIRErsdjMJZ4PqJDB-138">
          <mxGeometry x="60" width="120" height="30" as="geometry">
            <mxRectangle width="120" height="30" as="alternateBounds" />
          </mxGeometry>
        </mxCell>
        <mxCell id="sJoOIRErsdjMJZ4PqJDB-141" value="" style="shape=tableRow;horizontal=0;startSize=0;swimlaneHead=0;swimlaneBody=0;fillColor=none;collapsible=0;dropTarget=0;points=[[0,0.5],[1,0.5]];portConstraint=eastwest;top=0;left=0;right=0;bottom=0;html=1;" vertex="1" parent="sJoOIRErsdjMJZ4PqJDB-131">
          <mxGeometry y="120" width="180" height="30" as="geometry" />
        </mxCell>
        <mxCell id="sJoOIRErsdjMJZ4PqJDB-142" value="" style="shape=partialRectangle;connectable=0;fillColor=none;top=0;left=0;bottom=0;right=0;editable=1;overflow=hidden;html=1;whiteSpace=wrap;" vertex="1" parent="sJoOIRErsdjMJZ4PqJDB-141">
          <mxGeometry width="60" height="30" as="geometry">
            <mxRectangle width="60" height="30" as="alternateBounds" />
          </mxGeometry>
        </mxCell>
        <mxCell id="sJoOIRErsdjMJZ4PqJDB-143" value="Data" style="shape=partialRectangle;connectable=0;fillColor=none;top=0;left=0;bottom=0;right=0;align=left;spacingLeft=6;overflow=hidden;html=1;whiteSpace=wrap;" vertex="1" parent="sJoOIRErsdjMJZ4PqJDB-141">
          <mxGeometry x="60" width="120" height="30" as="geometry">
            <mxRectangle width="120" height="30" as="alternateBounds" />
          </mxGeometry>
        </mxCell>
        <mxCell id="sJoOIRErsdjMJZ4PqJDB-144" value="Veterinário" style="shape=table;startSize=30;container=1;collapsible=1;childLayout=tableLayout;fixedRows=1;rowLines=0;fontStyle=1;align=center;resizeLast=1;html=1;whiteSpace=wrap;fillColor=#f8cecc;strokeColor=#b85450;" vertex="1" parent="1">
          <mxGeometry x="1940" y="460" width="180" height="120" as="geometry" />
        </mxCell>
        <mxCell id="sJoOIRErsdjMJZ4PqJDB-145" value="" style="shape=tableRow;horizontal=0;startSize=0;swimlaneHead=0;swimlaneBody=0;fillColor=none;collapsible=0;dropTarget=0;points=[[0,0.5],[1,0.5]];portConstraint=eastwest;top=0;left=0;right=0;bottom=0;html=1;" vertex="1" parent="sJoOIRErsdjMJZ4PqJDB-144">
          <mxGeometry y="30" width="180" height="30" as="geometry" />
        </mxCell>
        <mxCell id="sJoOIRErsdjMJZ4PqJDB-146" value="PK" style="shape=partialRectangle;connectable=0;fillColor=none;top=0;left=0;bottom=0;right=0;fontStyle=1;overflow=hidden;html=1;whiteSpace=wrap;" vertex="1" parent="sJoOIRErsdjMJZ4PqJDB-145">
          <mxGeometry width="60" height="30" as="geometry">
            <mxRectangle width="60" height="30" as="alternateBounds" />
          </mxGeometry>
        </mxCell>
        <mxCell id="sJoOIRErsdjMJZ4PqJDB-147" value="IdVeterinario" style="shape=partialRectangle;connectable=0;fillColor=none;top=0;left=0;bottom=0;right=0;align=left;spacingLeft=6;fontStyle=5;overflow=hidden;html=1;whiteSpace=wrap;" vertex="1" parent="sJoOIRErsdjMJZ4PqJDB-145">
          <mxGeometry x="60" width="120" height="30" as="geometry">
            <mxRectangle width="120" height="30" as="alternateBounds" />
          </mxGeometry>
        </mxCell>
        <mxCell id="sJoOIRErsdjMJZ4PqJDB-148" value="" style="shape=tableRow;horizontal=0;startSize=0;swimlaneHead=0;swimlaneBody=0;fillColor=none;collapsible=0;dropTarget=0;points=[[0,0.5],[1,0.5]];portConstraint=eastwest;top=0;left=0;right=0;bottom=1;html=1;" vertex="1" parent="sJoOIRErsdjMJZ4PqJDB-144">
          <mxGeometry y="60" width="180" height="30" as="geometry" />
        </mxCell>
        <mxCell id="sJoOIRErsdjMJZ4PqJDB-149" value="FK" style="shape=partialRectangle;connectable=0;fillColor=none;top=0;left=0;bottom=0;right=0;fontStyle=1;overflow=hidden;html=1;whiteSpace=wrap;" vertex="1" parent="sJoOIRErsdjMJZ4PqJDB-148">
          <mxGeometry width="60" height="30" as="geometry">
            <mxRectangle width="60" height="30" as="alternateBounds" />
          </mxGeometry>
        </mxCell>
        <mxCell id="sJoOIRErsdjMJZ4PqJDB-150" value="IdClinica" style="shape=partialRectangle;connectable=0;fillColor=none;top=0;left=0;bottom=0;right=0;align=left;spacingLeft=6;fontStyle=5;overflow=hidden;html=1;whiteSpace=wrap;" vertex="1" parent="sJoOIRErsdjMJZ4PqJDB-148">
          <mxGeometry x="60" width="120" height="30" as="geometry">
            <mxRectangle width="120" height="30" as="alternateBounds" />
          </mxGeometry>
        </mxCell>
        <mxCell id="sJoOIRErsdjMJZ4PqJDB-151" value="" style="shape=tableRow;horizontal=0;startSize=0;swimlaneHead=0;swimlaneBody=0;fillColor=none;collapsible=0;dropTarget=0;points=[[0,0.5],[1,0.5]];portConstraint=eastwest;top=0;left=0;right=0;bottom=0;html=1;" vertex="1" parent="sJoOIRErsdjMJZ4PqJDB-144">
          <mxGeometry y="90" width="180" height="30" as="geometry" />
        </mxCell>
        <mxCell id="sJoOIRErsdjMJZ4PqJDB-152" value="" style="shape=partialRectangle;connectable=0;fillColor=none;top=0;left=0;bottom=0;right=0;editable=1;overflow=hidden;html=1;whiteSpace=wrap;" vertex="1" parent="sJoOIRErsdjMJZ4PqJDB-151">
          <mxGeometry width="60" height="30" as="geometry">
            <mxRectangle width="60" height="30" as="alternateBounds" />
          </mxGeometry>
        </mxCell>
        <mxCell id="sJoOIRErsdjMJZ4PqJDB-153" value="Nome" style="shape=partialRectangle;connectable=0;fillColor=none;top=0;left=0;bottom=0;right=0;align=left;spacingLeft=6;overflow=hidden;html=1;whiteSpace=wrap;" vertex="1" parent="sJoOIRErsdjMJZ4PqJDB-151">
          <mxGeometry x="60" width="120" height="30" as="geometry">
            <mxRectangle width="120" height="30" as="alternateBounds" />
          </mxGeometry>
        </mxCell>
        <mxCell id="sJoOIRErsdjMJZ4PqJDB-154" value="" style="edgeStyle=entityRelationEdgeStyle;fontSize=12;html=1;endArrow=ERoneToMany;rounded=0;entryX=0;entryY=0.5;entryDx=0;entryDy=0;" edge="1" parent="1" target="sJoOIRErsdjMJZ4PqJDB-112">
          <mxGeometry width="100" height="100" relative="1" as="geometry">
            <mxPoint x="1500" y="210" as="sourcePoint" />
            <mxPoint x="1600" y="110" as="targetPoint" />
          </mxGeometry>
        </mxCell>
        <mxCell id="sJoOIRErsdjMJZ4PqJDB-155" value="" style="edgeStyle=entityRelationEdgeStyle;fontSize=12;html=1;endArrow=ERoneToMany;rounded=0;" edge="1" parent="1">
          <mxGeometry width="100" height="100" relative="1" as="geometry">
            <mxPoint x="1380" y="568" as="sourcePoint" />
            <mxPoint x="1300" y="400" as="targetPoint" />
          </mxGeometry>
        </mxCell>
        <mxCell id="sJoOIRErsdjMJZ4PqJDB-156" value="" style="edgeStyle=entityRelationEdgeStyle;fontSize=12;html=1;endArrow=ERoneToMany;rounded=0;entryX=0;entryY=0.5;entryDx=0;entryDy=0;" edge="1" parent="1" source="sJoOIRErsdjMJZ4PqJDB-89" target="sJoOIRErsdjMJZ4PqJDB-115">
          <mxGeometry width="100" height="100" relative="1" as="geometry">
            <mxPoint x="1530" y="330" as="sourcePoint" />
            <mxPoint x="1654" y="140" as="targetPoint" />
          </mxGeometry>
        </mxCell>
        <mxCell id="sJoOIRErsdjMJZ4PqJDB-157" value="" style="edgeStyle=entityRelationEdgeStyle;fontSize=12;html=1;endArrow=ERoneToMany;rounded=0;entryX=1;entryY=0.5;entryDx=0;entryDy=0;" edge="1" parent="1" source="sJoOIRErsdjMJZ4PqJDB-125" target="sJoOIRErsdjMJZ4PqJDB-148">
          <mxGeometry width="100" height="100" relative="1" as="geometry">
            <mxPoint x="2240" y="130" as="sourcePoint" />
            <mxPoint x="2020" y="230" as="targetPoint" />
            <Array as="points">
              <mxPoint x="2060" y="380" />
            </Array>
          </mxGeometry>
        </mxCell>
        <mxCell id="sJoOIRErsdjMJZ4PqJDB-158" value="" style="edgeStyle=entityRelationEdgeStyle;fontSize=12;html=1;endArrow=ERoneToMany;rounded=0;" edge="1" parent="1" target="sJoOIRErsdjMJZ4PqJDB-135">
          <mxGeometry width="100" height="100" relative="1" as="geometry">
            <mxPoint x="1940" y="105" as="sourcePoint" />
            <mxPoint x="1640" y="380" as="targetPoint" />
          </mxGeometry>
        </mxCell>
        <mxCell id="sJoOIRErsdjMJZ4PqJDB-160" value="" style="edgeStyle=entityRelationEdgeStyle;fontSize=12;html=1;endArrow=ERoneToMany;rounded=0;exitX=0;exitY=0.5;exitDx=0;exitDy=0;entryX=1;entryY=0.5;entryDx=0;entryDy=0;" edge="1" parent="1" source="sJoOIRErsdjMJZ4PqJDB-145" target="sJoOIRErsdjMJZ4PqJDB-132">
          <mxGeometry width="100" height="100" relative="1" as="geometry">
            <mxPoint x="1780" y="480" as="sourcePoint" />
            <mxPoint x="1900" y="640" as="targetPoint" />
          </mxGeometry>
        </mxCell>
        <mxCell id="sJoOIRErsdjMJZ4PqJDB-161" value="Físico" style="text;html=1;align=center;verticalAlign=middle;resizable=0;points=[];autosize=1;strokeColor=#82b366;fillColor=#d5e8d4;" vertex="1" parent="1">
          <mxGeometry x="1820" y="748" width="60" height="30" as="geometry" />
        </mxCell>
        <mxCell id="sJoOIRErsdjMJZ4PqJDB-162" value="Dono" style="shape=table;startSize=30;container=1;collapsible=0;childLayout=tableLayout;fixedRows=1;rowLines=0;fontStyle=0;strokeColor=#10739e;fontSize=16;fillColor=#b1ddf0;" vertex="1" parent="1">
          <mxGeometry x="1760" y="870" width="160" height="120" as="geometry" />
        </mxCell>
        <mxCell id="sJoOIRErsdjMJZ4PqJDB-163" value="" style="shape=tableRow;horizontal=0;startSize=0;swimlaneHead=0;swimlaneBody=0;top=0;left=0;bottom=0;right=0;collapsible=0;dropTarget=0;fillColor=none;points=[[0,0.5],[1,0.5]];portConstraint=eastwest;strokeColor=inherit;fontSize=16;" vertex="1" parent="sJoOIRErsdjMJZ4PqJDB-162">
          <mxGeometry y="30" width="160" height="30" as="geometry" />
        </mxCell>
        <mxCell id="sJoOIRErsdjMJZ4PqJDB-164" value="&lt;b&gt;IdDono&lt;/b&gt;" style="shape=partialRectangle;html=1;whiteSpace=wrap;connectable=0;fillColor=none;top=0;left=0;bottom=0;right=0;overflow=hidden;pointerEvents=1;strokeColor=inherit;fontSize=16;" vertex="1" parent="sJoOIRErsdjMJZ4PqJDB-163">
          <mxGeometry width="70" height="30" as="geometry">
            <mxRectangle width="70" height="30" as="alternateBounds" />
          </mxGeometry>
        </mxCell>
        <mxCell id="sJoOIRErsdjMJZ4PqJDB-175" value="&lt;b&gt;Nome&lt;/b&gt;" style="shape=partialRectangle;html=1;whiteSpace=wrap;connectable=0;fillColor=none;top=0;left=0;bottom=0;right=0;overflow=hidden;pointerEvents=1;strokeColor=inherit;fontSize=16;" vertex="1" parent="sJoOIRErsdjMJZ4PqJDB-163">
          <mxGeometry x="70" width="90" height="30" as="geometry">
            <mxRectangle width="90" height="30" as="alternateBounds" />
          </mxGeometry>
        </mxCell>
        <mxCell id="sJoOIRErsdjMJZ4PqJDB-178" style="shape=tableRow;horizontal=0;startSize=0;swimlaneHead=0;swimlaneBody=0;top=0;left=0;bottom=0;right=0;collapsible=0;dropTarget=0;fillColor=none;points=[[0,0.5],[1,0.5]];portConstraint=eastwest;strokeColor=inherit;fontSize=16;" vertex="1" parent="sJoOIRErsdjMJZ4PqJDB-162">
          <mxGeometry y="60" width="160" height="30" as="geometry" />
        </mxCell>
        <mxCell id="sJoOIRErsdjMJZ4PqJDB-179" value="1" style="shape=partialRectangle;html=1;whiteSpace=wrap;connectable=0;fillColor=none;top=0;left=0;bottom=0;right=0;overflow=hidden;strokeColor=inherit;fontSize=16;" vertex="1" parent="sJoOIRErsdjMJZ4PqJDB-178">
          <mxGeometry width="70" height="30" as="geometry">
            <mxRectangle width="70" height="30" as="alternateBounds" />
          </mxGeometry>
        </mxCell>
        <mxCell id="sJoOIRErsdjMJZ4PqJDB-180" value="Rebeca" style="shape=partialRectangle;html=1;whiteSpace=wrap;connectable=0;fillColor=none;top=0;left=0;bottom=0;right=0;overflow=hidden;strokeColor=inherit;fontSize=16;" vertex="1" parent="sJoOIRErsdjMJZ4PqJDB-178">
          <mxGeometry x="70" width="90" height="30" as="geometry">
            <mxRectangle width="90" height="30" as="alternateBounds" />
          </mxGeometry>
        </mxCell>
        <mxCell id="sJoOIRErsdjMJZ4PqJDB-169" value="" style="shape=tableRow;horizontal=0;startSize=0;swimlaneHead=0;swimlaneBody=0;top=0;left=0;bottom=0;right=0;collapsible=0;dropTarget=0;fillColor=none;points=[[0,0.5],[1,0.5]];portConstraint=eastwest;strokeColor=inherit;fontSize=16;" vertex="1" parent="sJoOIRErsdjMJZ4PqJDB-162">
          <mxGeometry y="90" width="160" height="30" as="geometry" />
        </mxCell>
        <mxCell id="sJoOIRErsdjMJZ4PqJDB-170" value="2" style="shape=partialRectangle;html=1;whiteSpace=wrap;connectable=0;fillColor=none;top=0;left=0;bottom=0;right=0;overflow=hidden;strokeColor=inherit;fontSize=16;" vertex="1" parent="sJoOIRErsdjMJZ4PqJDB-169">
          <mxGeometry width="70" height="30" as="geometry">
            <mxRectangle width="70" height="30" as="alternateBounds" />
          </mxGeometry>
        </mxCell>
        <mxCell id="sJoOIRErsdjMJZ4PqJDB-177" value="Carolina" style="shape=partialRectangle;html=1;whiteSpace=wrap;connectable=0;fillColor=none;top=0;left=0;bottom=0;right=0;overflow=hidden;strokeColor=inherit;fontSize=16;" vertex="1" parent="sJoOIRErsdjMJZ4PqJDB-169">
          <mxGeometry x="70" width="90" height="30" as="geometry">
            <mxRectangle width="90" height="30" as="alternateBounds" />
          </mxGeometry>
        </mxCell>
        <mxCell id="sJoOIRErsdjMJZ4PqJDB-182" value="Clínica" style="shape=table;startSize=30;container=1;collapsible=0;childLayout=tableLayout;fixedRows=1;rowLines=0;fontStyle=0;strokeColor=#9673a6;fontSize=16;fillColor=#e1d5e7;" vertex="1" parent="1">
          <mxGeometry x="1960" y="870" width="160" height="90" as="geometry" />
        </mxCell>
        <mxCell id="sJoOIRErsdjMJZ4PqJDB-183" value="" style="shape=tableRow;horizontal=0;startSize=0;swimlaneHead=0;swimlaneBody=0;top=0;left=0;bottom=0;right=0;collapsible=0;dropTarget=0;fillColor=none;points=[[0,0.5],[1,0.5]];portConstraint=eastwest;strokeColor=inherit;fontSize=16;" vertex="1" parent="sJoOIRErsdjMJZ4PqJDB-182">
          <mxGeometry y="30" width="160" height="30" as="geometry" />
        </mxCell>
        <mxCell id="sJoOIRErsdjMJZ4PqJDB-184" value="&lt;b&gt;IdClinica&lt;/b&gt;" style="shape=partialRectangle;html=1;whiteSpace=wrap;connectable=0;fillColor=none;top=0;left=0;bottom=0;right=0;overflow=hidden;pointerEvents=1;strokeColor=inherit;fontSize=16;" vertex="1" parent="sJoOIRErsdjMJZ4PqJDB-183">
          <mxGeometry width="80" height="30" as="geometry">
            <mxRectangle width="80" height="30" as="alternateBounds" />
          </mxGeometry>
        </mxCell>
        <mxCell id="sJoOIRErsdjMJZ4PqJDB-185" value="&lt;b&gt;Endereço&lt;/b&gt;" style="shape=partialRectangle;html=1;whiteSpace=wrap;connectable=0;fillColor=none;top=0;left=0;bottom=0;right=0;overflow=hidden;pointerEvents=1;strokeColor=inherit;fontSize=16;" vertex="1" parent="sJoOIRErsdjMJZ4PqJDB-183">
          <mxGeometry x="80" width="80" height="30" as="geometry">
            <mxRectangle width="80" height="30" as="alternateBounds" />
          </mxGeometry>
        </mxCell>
        <mxCell id="sJoOIRErsdjMJZ4PqJDB-186" style="shape=tableRow;horizontal=0;startSize=0;swimlaneHead=0;swimlaneBody=0;top=0;left=0;bottom=0;right=0;collapsible=0;dropTarget=0;fillColor=none;points=[[0,0.5],[1,0.5]];portConstraint=eastwest;strokeColor=inherit;fontSize=16;" vertex="1" parent="sJoOIRErsdjMJZ4PqJDB-182">
          <mxGeometry y="60" width="160" height="30" as="geometry" />
        </mxCell>
        <mxCell id="sJoOIRErsdjMJZ4PqJDB-187" value="1" style="shape=partialRectangle;html=1;whiteSpace=wrap;connectable=0;fillColor=none;top=0;left=0;bottom=0;right=0;overflow=hidden;strokeColor=inherit;fontSize=16;" vertex="1" parent="sJoOIRErsdjMJZ4PqJDB-186">
          <mxGeometry width="80" height="30" as="geometry">
            <mxRectangle width="80" height="30" as="alternateBounds" />
          </mxGeometry>
        </mxCell>
        <mxCell id="sJoOIRErsdjMJZ4PqJDB-188" value="Rua SeiLa" style="shape=partialRectangle;html=1;whiteSpace=wrap;connectable=0;fillColor=none;top=0;left=0;bottom=0;right=0;overflow=hidden;strokeColor=inherit;fontSize=16;" vertex="1" parent="sJoOIRErsdjMJZ4PqJDB-186">
          <mxGeometry x="80" width="80" height="30" as="geometry">
            <mxRectangle width="80" height="30" as="alternateBounds" />
          </mxGeometry>
        </mxCell>
        <mxCell id="sJoOIRErsdjMJZ4PqJDB-192" value="TipoPet" style="shape=table;startSize=30;container=1;collapsible=0;childLayout=tableLayout;fixedRows=1;rowLines=0;fontStyle=0;strokeColor=#23445d;fontSize=16;fillColor=#bac8d3;" vertex="1" parent="1">
          <mxGeometry x="1960" y="1000" width="160" height="120" as="geometry" />
        </mxCell>
        <mxCell id="sJoOIRErsdjMJZ4PqJDB-193" value="" style="shape=tableRow;horizontal=0;startSize=0;swimlaneHead=0;swimlaneBody=0;top=0;left=0;bottom=0;right=0;collapsible=0;dropTarget=0;fillColor=none;points=[[0,0.5],[1,0.5]];portConstraint=eastwest;strokeColor=inherit;fontSize=16;" vertex="1" parent="sJoOIRErsdjMJZ4PqJDB-192">
          <mxGeometry y="30" width="160" height="30" as="geometry" />
        </mxCell>
        <mxCell id="sJoOIRErsdjMJZ4PqJDB-194" value="&lt;b&gt;IdTipoPet&lt;/b&gt;" style="shape=partialRectangle;html=1;whiteSpace=wrap;connectable=0;fillColor=none;top=0;left=0;bottom=0;right=0;overflow=hidden;pointerEvents=1;strokeColor=inherit;fontSize=16;" vertex="1" parent="sJoOIRErsdjMJZ4PqJDB-193">
          <mxGeometry width="90" height="30" as="geometry">
            <mxRectangle width="90" height="30" as="alternateBounds" />
          </mxGeometry>
        </mxCell>
        <mxCell id="sJoOIRErsdjMJZ4PqJDB-195" value="&lt;b&gt;Nome&lt;/b&gt;" style="shape=partialRectangle;html=1;whiteSpace=wrap;connectable=0;fillColor=none;top=0;left=0;bottom=0;right=0;overflow=hidden;pointerEvents=1;strokeColor=inherit;fontSize=16;" vertex="1" parent="sJoOIRErsdjMJZ4PqJDB-193">
          <mxGeometry x="90" width="70" height="30" as="geometry">
            <mxRectangle width="70" height="30" as="alternateBounds" />
          </mxGeometry>
        </mxCell>
        <mxCell id="sJoOIRErsdjMJZ4PqJDB-196" style="shape=tableRow;horizontal=0;startSize=0;swimlaneHead=0;swimlaneBody=0;top=0;left=0;bottom=0;right=0;collapsible=0;dropTarget=0;fillColor=none;points=[[0,0.5],[1,0.5]];portConstraint=eastwest;strokeColor=inherit;fontSize=16;" vertex="1" parent="sJoOIRErsdjMJZ4PqJDB-192">
          <mxGeometry y="60" width="160" height="30" as="geometry" />
        </mxCell>
        <mxCell id="sJoOIRErsdjMJZ4PqJDB-197" value="1" style="shape=partialRectangle;html=1;whiteSpace=wrap;connectable=0;fillColor=none;top=0;left=0;bottom=0;right=0;overflow=hidden;strokeColor=inherit;fontSize=16;" vertex="1" parent="sJoOIRErsdjMJZ4PqJDB-196">
          <mxGeometry width="90" height="30" as="geometry">
            <mxRectangle width="90" height="30" as="alternateBounds" />
          </mxGeometry>
        </mxCell>
        <mxCell id="sJoOIRErsdjMJZ4PqJDB-198" value="Gato" style="shape=partialRectangle;html=1;whiteSpace=wrap;connectable=0;fillColor=none;top=0;left=0;bottom=0;right=0;overflow=hidden;strokeColor=inherit;fontSize=16;" vertex="1" parent="sJoOIRErsdjMJZ4PqJDB-196">
          <mxGeometry x="90" width="70" height="30" as="geometry">
            <mxRectangle width="70" height="30" as="alternateBounds" />
          </mxGeometry>
        </mxCell>
        <mxCell id="sJoOIRErsdjMJZ4PqJDB-199" style="shape=tableRow;horizontal=0;startSize=0;swimlaneHead=0;swimlaneBody=0;top=0;left=0;bottom=0;right=0;collapsible=0;dropTarget=0;fillColor=none;points=[[0,0.5],[1,0.5]];portConstraint=eastwest;strokeColor=inherit;fontSize=16;" vertex="1" parent="sJoOIRErsdjMJZ4PqJDB-192">
          <mxGeometry y="90" width="160" height="30" as="geometry" />
        </mxCell>
        <mxCell id="sJoOIRErsdjMJZ4PqJDB-200" value="2" style="shape=partialRectangle;html=1;whiteSpace=wrap;connectable=0;fillColor=none;top=0;left=0;bottom=0;right=0;overflow=hidden;strokeColor=inherit;fontSize=16;" vertex="1" parent="sJoOIRErsdjMJZ4PqJDB-199">
          <mxGeometry width="90" height="30" as="geometry">
            <mxRectangle width="90" height="30" as="alternateBounds" />
          </mxGeometry>
        </mxCell>
        <mxCell id="sJoOIRErsdjMJZ4PqJDB-201" value="Cachorro" style="shape=partialRectangle;html=1;whiteSpace=wrap;connectable=0;fillColor=none;top=0;left=0;bottom=0;right=0;overflow=hidden;strokeColor=inherit;fontSize=16;" vertex="1" parent="sJoOIRErsdjMJZ4PqJDB-199">
          <mxGeometry x="90" width="70" height="30" as="geometry">
            <mxRectangle width="70" height="30" as="alternateBounds" />
          </mxGeometry>
        </mxCell>
        <mxCell id="sJoOIRErsdjMJZ4PqJDB-202" value="Raça" style="shape=table;startSize=30;container=1;collapsible=0;childLayout=tableLayout;fixedRows=1;rowLines=0;fontStyle=0;strokeColor=#0e8088;fontSize=16;fillColor=#b0e3e6;" vertex="1" parent="1">
          <mxGeometry x="1960" y="720" width="240" height="120" as="geometry" />
        </mxCell>
        <mxCell id="sJoOIRErsdjMJZ4PqJDB-203" value="" style="shape=tableRow;horizontal=0;startSize=0;swimlaneHead=0;swimlaneBody=0;top=0;left=0;bottom=0;right=0;collapsible=0;dropTarget=0;fillColor=none;points=[[0,0.5],[1,0.5]];portConstraint=eastwest;strokeColor=inherit;fontSize=16;" vertex="1" parent="sJoOIRErsdjMJZ4PqJDB-202">
          <mxGeometry y="30" width="240" height="30" as="geometry" />
        </mxCell>
        <mxCell id="sJoOIRErsdjMJZ4PqJDB-204" value="&lt;b&gt;IdTipoPet&lt;/b&gt;" style="shape=partialRectangle;html=1;whiteSpace=wrap;connectable=0;fillColor=none;top=0;left=0;bottom=0;right=0;overflow=hidden;pointerEvents=1;strokeColor=inherit;fontSize=16;" vertex="1" parent="sJoOIRErsdjMJZ4PqJDB-203">
          <mxGeometry width="80" height="30" as="geometry">
            <mxRectangle width="80" height="30" as="alternateBounds" />
          </mxGeometry>
        </mxCell>
        <mxCell id="sJoOIRErsdjMJZ4PqJDB-205" value="&lt;b&gt;IdRaça&lt;/b&gt;" style="shape=partialRectangle;html=1;whiteSpace=wrap;connectable=0;fillColor=none;top=0;left=0;bottom=0;right=0;overflow=hidden;pointerEvents=1;strokeColor=inherit;fontSize=16;" vertex="1" parent="sJoOIRErsdjMJZ4PqJDB-203">
          <mxGeometry x="80" width="80" height="30" as="geometry">
            <mxRectangle width="80" height="30" as="alternateBounds" />
          </mxGeometry>
        </mxCell>
        <mxCell id="sJoOIRErsdjMJZ4PqJDB-209" value="&lt;b&gt;Nome&lt;/b&gt;" style="shape=partialRectangle;html=1;whiteSpace=wrap;connectable=0;fillColor=none;top=0;left=0;bottom=0;right=0;overflow=hidden;pointerEvents=1;strokeColor=inherit;fontSize=16;" vertex="1" parent="sJoOIRErsdjMJZ4PqJDB-203">
          <mxGeometry x="160" width="80" height="30" as="geometry">
            <mxRectangle width="80" height="30" as="alternateBounds" />
          </mxGeometry>
        </mxCell>
        <mxCell id="sJoOIRErsdjMJZ4PqJDB-206" style="shape=tableRow;horizontal=0;startSize=0;swimlaneHead=0;swimlaneBody=0;top=0;left=0;bottom=0;right=0;collapsible=0;dropTarget=0;fillColor=none;points=[[0,0.5],[1,0.5]];portConstraint=eastwest;strokeColor=inherit;fontSize=16;" vertex="1" parent="sJoOIRErsdjMJZ4PqJDB-202">
          <mxGeometry y="60" width="240" height="30" as="geometry" />
        </mxCell>
        <mxCell id="sJoOIRErsdjMJZ4PqJDB-207" value="1" style="shape=partialRectangle;html=1;whiteSpace=wrap;connectable=0;fillColor=none;top=0;left=0;bottom=0;right=0;overflow=hidden;strokeColor=inherit;fontSize=16;" vertex="1" parent="sJoOIRErsdjMJZ4PqJDB-206">
          <mxGeometry width="80" height="30" as="geometry">
            <mxRectangle width="80" height="30" as="alternateBounds" />
          </mxGeometry>
        </mxCell>
        <mxCell id="sJoOIRErsdjMJZ4PqJDB-208" value="1" style="shape=partialRectangle;html=1;whiteSpace=wrap;connectable=0;fillColor=none;top=0;left=0;bottom=0;right=0;overflow=hidden;strokeColor=inherit;fontSize=16;" vertex="1" parent="sJoOIRErsdjMJZ4PqJDB-206">
          <mxGeometry x="80" width="80" height="30" as="geometry">
            <mxRectangle width="80" height="30" as="alternateBounds" />
          </mxGeometry>
        </mxCell>
        <mxCell id="sJoOIRErsdjMJZ4PqJDB-210" value="Siamês" style="shape=partialRectangle;html=1;whiteSpace=wrap;connectable=0;fillColor=none;top=0;left=0;bottom=0;right=0;overflow=hidden;strokeColor=inherit;fontSize=16;" vertex="1" parent="sJoOIRErsdjMJZ4PqJDB-206">
          <mxGeometry x="160" width="80" height="30" as="geometry">
            <mxRectangle width="80" height="30" as="alternateBounds" />
          </mxGeometry>
        </mxCell>
        <mxCell id="sJoOIRErsdjMJZ4PqJDB-211" style="shape=tableRow;horizontal=0;startSize=0;swimlaneHead=0;swimlaneBody=0;top=0;left=0;bottom=0;right=0;collapsible=0;dropTarget=0;fillColor=none;points=[[0,0.5],[1,0.5]];portConstraint=eastwest;strokeColor=inherit;fontSize=16;" vertex="1" parent="sJoOIRErsdjMJZ4PqJDB-202">
          <mxGeometry y="90" width="240" height="30" as="geometry" />
        </mxCell>
        <mxCell id="sJoOIRErsdjMJZ4PqJDB-212" value="2" style="shape=partialRectangle;html=1;whiteSpace=wrap;connectable=0;fillColor=none;top=0;left=0;bottom=0;right=0;overflow=hidden;strokeColor=inherit;fontSize=16;" vertex="1" parent="sJoOIRErsdjMJZ4PqJDB-211">
          <mxGeometry width="80" height="30" as="geometry">
            <mxRectangle width="80" height="30" as="alternateBounds" />
          </mxGeometry>
        </mxCell>
        <mxCell id="sJoOIRErsdjMJZ4PqJDB-213" value="4" style="shape=partialRectangle;html=1;whiteSpace=wrap;connectable=0;fillColor=none;top=0;left=0;bottom=0;right=0;overflow=hidden;strokeColor=inherit;fontSize=16;" vertex="1" parent="sJoOIRErsdjMJZ4PqJDB-211">
          <mxGeometry x="80" width="80" height="30" as="geometry">
            <mxRectangle width="80" height="30" as="alternateBounds" />
          </mxGeometry>
        </mxCell>
        <mxCell id="sJoOIRErsdjMJZ4PqJDB-214" value="PitBull" style="shape=partialRectangle;html=1;whiteSpace=wrap;connectable=0;fillColor=none;top=0;left=0;bottom=0;right=0;overflow=hidden;strokeColor=inherit;fontSize=16;" vertex="1" parent="sJoOIRErsdjMJZ4PqJDB-211">
          <mxGeometry x="160" width="80" height="30" as="geometry">
            <mxRectangle width="80" height="30" as="alternateBounds" />
          </mxGeometry>
        </mxCell>
        <mxCell id="sJoOIRErsdjMJZ4PqJDB-215" value="Veterinário" style="shape=table;startSize=30;container=1;collapsible=0;childLayout=tableLayout;fixedRows=1;rowLines=0;fontStyle=0;strokeColor=#b85450;fontSize=16;fillColor=#f8cecc;" vertex="1" parent="1">
          <mxGeometry x="2280" y="720" width="250" height="120" as="geometry" />
        </mxCell>
        <mxCell id="sJoOIRErsdjMJZ4PqJDB-216" value="" style="shape=tableRow;horizontal=0;startSize=0;swimlaneHead=0;swimlaneBody=0;top=0;left=0;bottom=0;right=0;collapsible=0;dropTarget=0;fillColor=none;points=[[0,0.5],[1,0.5]];portConstraint=eastwest;strokeColor=inherit;fontSize=16;" vertex="1" parent="sJoOIRErsdjMJZ4PqJDB-215">
          <mxGeometry y="30" width="250" height="30" as="geometry" />
        </mxCell>
        <mxCell id="sJoOIRErsdjMJZ4PqJDB-217" value="&lt;b&gt;IdClinica&lt;/b&gt;" style="shape=partialRectangle;html=1;whiteSpace=wrap;connectable=0;fillColor=none;top=0;left=0;bottom=0;right=0;overflow=hidden;pointerEvents=1;strokeColor=inherit;fontSize=16;" vertex="1" parent="sJoOIRErsdjMJZ4PqJDB-216">
          <mxGeometry width="83" height="30" as="geometry">
            <mxRectangle width="83" height="30" as="alternateBounds" />
          </mxGeometry>
        </mxCell>
        <mxCell id="sJoOIRErsdjMJZ4PqJDB-218" value="&lt;b&gt;IdVeterinario&lt;/b&gt;" style="shape=partialRectangle;html=1;whiteSpace=wrap;connectable=0;fillColor=none;top=0;left=0;bottom=0;right=0;overflow=hidden;pointerEvents=1;strokeColor=inherit;fontSize=16;" vertex="1" parent="sJoOIRErsdjMJZ4PqJDB-216">
          <mxGeometry x="83" width="105" height="30" as="geometry">
            <mxRectangle width="105" height="30" as="alternateBounds" />
          </mxGeometry>
        </mxCell>
        <mxCell id="sJoOIRErsdjMJZ4PqJDB-231" value="&lt;b&gt;Nome&lt;/b&gt;" style="shape=partialRectangle;html=1;whiteSpace=wrap;connectable=0;fillColor=none;top=0;left=0;bottom=0;right=0;overflow=hidden;pointerEvents=1;strokeColor=inherit;fontSize=16;" vertex="1" parent="sJoOIRErsdjMJZ4PqJDB-216">
          <mxGeometry x="188" width="62" height="30" as="geometry">
            <mxRectangle width="62" height="30" as="alternateBounds" />
          </mxGeometry>
        </mxCell>
        <mxCell id="sJoOIRErsdjMJZ4PqJDB-220" style="shape=tableRow;horizontal=0;startSize=0;swimlaneHead=0;swimlaneBody=0;top=0;left=0;bottom=0;right=0;collapsible=0;dropTarget=0;fillColor=none;points=[[0,0.5],[1,0.5]];portConstraint=eastwest;strokeColor=inherit;fontSize=16;" vertex="1" parent="sJoOIRErsdjMJZ4PqJDB-215">
          <mxGeometry y="60" width="250" height="30" as="geometry" />
        </mxCell>
        <mxCell id="sJoOIRErsdjMJZ4PqJDB-221" value="1" style="shape=partialRectangle;html=1;whiteSpace=wrap;connectable=0;fillColor=none;top=0;left=0;bottom=0;right=0;overflow=hidden;strokeColor=inherit;fontSize=16;" vertex="1" parent="sJoOIRErsdjMJZ4PqJDB-220">
          <mxGeometry width="83" height="30" as="geometry">
            <mxRectangle width="83" height="30" as="alternateBounds" />
          </mxGeometry>
        </mxCell>
        <mxCell id="sJoOIRErsdjMJZ4PqJDB-222" value="1" style="shape=partialRectangle;html=1;whiteSpace=wrap;connectable=0;fillColor=none;top=0;left=0;bottom=0;right=0;overflow=hidden;strokeColor=inherit;fontSize=16;" vertex="1" parent="sJoOIRErsdjMJZ4PqJDB-220">
          <mxGeometry x="83" width="105" height="30" as="geometry">
            <mxRectangle width="105" height="30" as="alternateBounds" />
          </mxGeometry>
        </mxCell>
        <mxCell id="sJoOIRErsdjMJZ4PqJDB-232" value="Isabella" style="shape=partialRectangle;html=1;whiteSpace=wrap;connectable=0;fillColor=none;top=0;left=0;bottom=0;right=0;overflow=hidden;strokeColor=inherit;fontSize=16;" vertex="1" parent="sJoOIRErsdjMJZ4PqJDB-220">
          <mxGeometry x="188" width="62" height="30" as="geometry">
            <mxRectangle width="62" height="30" as="alternateBounds" />
          </mxGeometry>
        </mxCell>
        <mxCell id="sJoOIRErsdjMJZ4PqJDB-224" style="shape=tableRow;horizontal=0;startSize=0;swimlaneHead=0;swimlaneBody=0;top=0;left=0;bottom=0;right=0;collapsible=0;dropTarget=0;fillColor=none;points=[[0,0.5],[1,0.5]];portConstraint=eastwest;strokeColor=inherit;fontSize=16;" vertex="1" parent="sJoOIRErsdjMJZ4PqJDB-215">
          <mxGeometry y="90" width="250" height="30" as="geometry" />
        </mxCell>
        <mxCell id="sJoOIRErsdjMJZ4PqJDB-225" value="1" style="shape=partialRectangle;html=1;whiteSpace=wrap;connectable=0;fillColor=none;top=0;left=0;bottom=0;right=0;overflow=hidden;strokeColor=inherit;fontSize=16;" vertex="1" parent="sJoOIRErsdjMJZ4PqJDB-224">
          <mxGeometry width="83" height="30" as="geometry">
            <mxRectangle width="83" height="30" as="alternateBounds" />
          </mxGeometry>
        </mxCell>
        <mxCell id="sJoOIRErsdjMJZ4PqJDB-226" value="2" style="shape=partialRectangle;html=1;whiteSpace=wrap;connectable=0;fillColor=none;top=0;left=0;bottom=0;right=0;overflow=hidden;strokeColor=inherit;fontSize=16;" vertex="1" parent="sJoOIRErsdjMJZ4PqJDB-224">
          <mxGeometry x="83" width="105" height="30" as="geometry">
            <mxRectangle width="105" height="30" as="alternateBounds" />
          </mxGeometry>
        </mxCell>
        <mxCell id="sJoOIRErsdjMJZ4PqJDB-233" value="Ana" style="shape=partialRectangle;html=1;whiteSpace=wrap;connectable=0;fillColor=none;top=0;left=0;bottom=0;right=0;overflow=hidden;strokeColor=inherit;fontSize=16;" vertex="1" parent="sJoOIRErsdjMJZ4PqJDB-224">
          <mxGeometry x="188" width="62" height="30" as="geometry">
            <mxRectangle width="62" height="30" as="alternateBounds" />
          </mxGeometry>
        </mxCell>
        <mxCell id="sJoOIRErsdjMJZ4PqJDB-234" value="Pet" style="shape=table;startSize=30;container=1;collapsible=0;childLayout=tableLayout;fixedRows=1;rowLines=0;fontStyle=0;strokeColor=#d79b00;fontSize=16;fillColor=#ffe6cc;" vertex="1" parent="1">
          <mxGeometry x="2280" y="920" width="450" height="120" as="geometry" />
        </mxCell>
        <mxCell id="sJoOIRErsdjMJZ4PqJDB-235" value="" style="shape=tableRow;horizontal=0;startSize=0;swimlaneHead=0;swimlaneBody=0;top=0;left=0;bottom=0;right=0;collapsible=0;dropTarget=0;fillColor=none;points=[[0,0.5],[1,0.5]];portConstraint=eastwest;strokeColor=inherit;fontSize=16;" vertex="1" parent="sJoOIRErsdjMJZ4PqJDB-234">
          <mxGeometry y="30" width="450" height="30" as="geometry" />
        </mxCell>
        <mxCell id="sJoOIRErsdjMJZ4PqJDB-247" value="&lt;b&gt;IdDono&lt;/b&gt;" style="shape=partialRectangle;html=1;whiteSpace=wrap;connectable=0;fillColor=none;top=0;left=0;bottom=0;right=0;overflow=hidden;pointerEvents=1;strokeColor=inherit;fontSize=16;" vertex="1" parent="sJoOIRErsdjMJZ4PqJDB-235">
          <mxGeometry width="80" height="30" as="geometry">
            <mxRectangle width="80" height="30" as="alternateBounds" />
          </mxGeometry>
        </mxCell>
        <mxCell id="sJoOIRErsdjMJZ4PqJDB-236" value="&lt;b&gt;IdPet&lt;/b&gt;" style="shape=partialRectangle;html=1;whiteSpace=wrap;connectable=0;fillColor=none;top=0;left=0;bottom=0;right=0;overflow=hidden;pointerEvents=1;strokeColor=inherit;fontSize=16;" vertex="1" parent="sJoOIRErsdjMJZ4PqJDB-235">
          <mxGeometry x="80" width="80" height="30" as="geometry">
            <mxRectangle width="80" height="30" as="alternateBounds" />
          </mxGeometry>
        </mxCell>
        <mxCell id="sJoOIRErsdjMJZ4PqJDB-237" value="&lt;b&gt;IdRaça&lt;/b&gt;" style="shape=partialRectangle;html=1;whiteSpace=wrap;connectable=0;fillColor=none;top=0;left=0;bottom=0;right=0;overflow=hidden;pointerEvents=1;strokeColor=inherit;fontSize=16;" vertex="1" parent="sJoOIRErsdjMJZ4PqJDB-235">
          <mxGeometry x="160" width="80" height="30" as="geometry">
            <mxRectangle width="80" height="30" as="alternateBounds" />
          </mxGeometry>
        </mxCell>
        <mxCell id="sJoOIRErsdjMJZ4PqJDB-238" value="&lt;b&gt;Nome&lt;/b&gt;" style="shape=partialRectangle;html=1;whiteSpace=wrap;connectable=0;fillColor=none;top=0;left=0;bottom=0;right=0;overflow=hidden;pointerEvents=1;strokeColor=inherit;fontSize=16;" vertex="1" parent="sJoOIRErsdjMJZ4PqJDB-235">
          <mxGeometry x="240" width="80" height="30" as="geometry">
            <mxRectangle width="80" height="30" as="alternateBounds" />
          </mxGeometry>
        </mxCell>
        <mxCell id="sJoOIRErsdjMJZ4PqJDB-250" value="&lt;b&gt;DataNascimento&lt;/b&gt;" style="shape=partialRectangle;html=1;whiteSpace=wrap;connectable=0;fillColor=none;top=0;left=0;bottom=0;right=0;overflow=hidden;pointerEvents=1;strokeColor=inherit;fontSize=16;" vertex="1" parent="sJoOIRErsdjMJZ4PqJDB-235">
          <mxGeometry x="320" width="130" height="30" as="geometry">
            <mxRectangle width="130" height="30" as="alternateBounds" />
          </mxGeometry>
        </mxCell>
        <mxCell id="sJoOIRErsdjMJZ4PqJDB-239" style="shape=tableRow;horizontal=0;startSize=0;swimlaneHead=0;swimlaneBody=0;top=0;left=0;bottom=0;right=0;collapsible=0;dropTarget=0;fillColor=none;points=[[0,0.5],[1,0.5]];portConstraint=eastwest;strokeColor=inherit;fontSize=16;" vertex="1" parent="sJoOIRErsdjMJZ4PqJDB-234">
          <mxGeometry y="60" width="450" height="30" as="geometry" />
        </mxCell>
        <mxCell id="sJoOIRErsdjMJZ4PqJDB-248" value="1" style="shape=partialRectangle;html=1;whiteSpace=wrap;connectable=0;fillColor=none;top=0;left=0;bottom=0;right=0;overflow=hidden;strokeColor=inherit;fontSize=16;" vertex="1" parent="sJoOIRErsdjMJZ4PqJDB-239">
          <mxGeometry width="80" height="30" as="geometry">
            <mxRectangle width="80" height="30" as="alternateBounds" />
          </mxGeometry>
        </mxCell>
        <mxCell id="sJoOIRErsdjMJZ4PqJDB-240" value="1" style="shape=partialRectangle;html=1;whiteSpace=wrap;connectable=0;fillColor=none;top=0;left=0;bottom=0;right=0;overflow=hidden;strokeColor=inherit;fontSize=16;" vertex="1" parent="sJoOIRErsdjMJZ4PqJDB-239">
          <mxGeometry x="80" width="80" height="30" as="geometry">
            <mxRectangle width="80" height="30" as="alternateBounds" />
          </mxGeometry>
        </mxCell>
        <mxCell id="sJoOIRErsdjMJZ4PqJDB-241" value="1" style="shape=partialRectangle;html=1;whiteSpace=wrap;connectable=0;fillColor=none;top=0;left=0;bottom=0;right=0;overflow=hidden;strokeColor=inherit;fontSize=16;" vertex="1" parent="sJoOIRErsdjMJZ4PqJDB-239">
          <mxGeometry x="160" width="80" height="30" as="geometry">
            <mxRectangle width="80" height="30" as="alternateBounds" />
          </mxGeometry>
        </mxCell>
        <mxCell id="sJoOIRErsdjMJZ4PqJDB-242" value="Nutella" style="shape=partialRectangle;html=1;whiteSpace=wrap;connectable=0;fillColor=none;top=0;left=0;bottom=0;right=0;overflow=hidden;strokeColor=inherit;fontSize=16;" vertex="1" parent="sJoOIRErsdjMJZ4PqJDB-239">
          <mxGeometry x="240" width="80" height="30" as="geometry">
            <mxRectangle width="80" height="30" as="alternateBounds" />
          </mxGeometry>
        </mxCell>
        <mxCell id="sJoOIRErsdjMJZ4PqJDB-251" value="dd/mm/aa" style="shape=partialRectangle;html=1;whiteSpace=wrap;connectable=0;fillColor=none;top=0;left=0;bottom=0;right=0;overflow=hidden;strokeColor=inherit;fontSize=16;" vertex="1" parent="sJoOIRErsdjMJZ4PqJDB-239">
          <mxGeometry x="320" width="130" height="30" as="geometry">
            <mxRectangle width="130" height="30" as="alternateBounds" />
          </mxGeometry>
        </mxCell>
        <mxCell id="sJoOIRErsdjMJZ4PqJDB-243" style="shape=tableRow;horizontal=0;startSize=0;swimlaneHead=0;swimlaneBody=0;top=0;left=0;bottom=0;right=0;collapsible=0;dropTarget=0;fillColor=none;points=[[0,0.5],[1,0.5]];portConstraint=eastwest;strokeColor=inherit;fontSize=16;" vertex="1" parent="sJoOIRErsdjMJZ4PqJDB-234">
          <mxGeometry y="90" width="450" height="30" as="geometry" />
        </mxCell>
        <mxCell id="sJoOIRErsdjMJZ4PqJDB-249" style="shape=partialRectangle;html=1;whiteSpace=wrap;connectable=0;fillColor=none;top=0;left=0;bottom=0;right=0;overflow=hidden;strokeColor=inherit;fontSize=16;" vertex="1" parent="sJoOIRErsdjMJZ4PqJDB-243">
          <mxGeometry width="80" height="30" as="geometry">
            <mxRectangle width="80" height="30" as="alternateBounds" />
          </mxGeometry>
        </mxCell>
        <mxCell id="sJoOIRErsdjMJZ4PqJDB-244" value="2" style="shape=partialRectangle;html=1;whiteSpace=wrap;connectable=0;fillColor=none;top=0;left=0;bottom=0;right=0;overflow=hidden;strokeColor=inherit;fontSize=16;" vertex="1" parent="sJoOIRErsdjMJZ4PqJDB-243">
          <mxGeometry x="80" width="80" height="30" as="geometry">
            <mxRectangle width="80" height="30" as="alternateBounds" />
          </mxGeometry>
        </mxCell>
        <mxCell id="sJoOIRErsdjMJZ4PqJDB-245" value="1" style="shape=partialRectangle;html=1;whiteSpace=wrap;connectable=0;fillColor=none;top=0;left=0;bottom=0;right=0;overflow=hidden;strokeColor=inherit;fontSize=16;" vertex="1" parent="sJoOIRErsdjMJZ4PqJDB-243">
          <mxGeometry x="160" width="80" height="30" as="geometry">
            <mxRectangle width="80" height="30" as="alternateBounds" />
          </mxGeometry>
        </mxCell>
        <mxCell id="sJoOIRErsdjMJZ4PqJDB-246" value="Mel" style="shape=partialRectangle;html=1;whiteSpace=wrap;connectable=0;fillColor=none;top=0;left=0;bottom=0;right=0;overflow=hidden;strokeColor=inherit;fontSize=16;" vertex="1" parent="sJoOIRErsdjMJZ4PqJDB-243">
          <mxGeometry x="240" width="80" height="30" as="geometry">
            <mxRectangle width="80" height="30" as="alternateBounds" />
          </mxGeometry>
        </mxCell>
        <mxCell id="sJoOIRErsdjMJZ4PqJDB-252" value="dd/mm/aa" style="shape=partialRectangle;html=1;whiteSpace=wrap;connectable=0;fillColor=none;top=0;left=0;bottom=0;right=0;overflow=hidden;strokeColor=inherit;fontSize=16;" vertex="1" parent="sJoOIRErsdjMJZ4PqJDB-243">
          <mxGeometry x="320" width="130" height="30" as="geometry">
            <mxRectangle width="130" height="30" as="alternateBounds" />
          </mxGeometry>
        </mxCell>
        <mxCell id="sJoOIRErsdjMJZ4PqJDB-253" value="Atendimento" style="shape=table;startSize=30;container=1;collapsible=0;childLayout=tableLayout;fixedRows=1;rowLines=0;fontStyle=0;strokeColor=#9673a6;fontSize=16;fillColor=#e1d5e7;" vertex="1" parent="1">
          <mxGeometry x="2640" y="720" width="340" height="120" as="geometry" />
        </mxCell>
        <mxCell id="sJoOIRErsdjMJZ4PqJDB-254" value="" style="shape=tableRow;horizontal=0;startSize=0;swimlaneHead=0;swimlaneBody=0;top=0;left=0;bottom=0;right=0;collapsible=0;dropTarget=0;fillColor=none;points=[[0,0.5],[1,0.5]];portConstraint=eastwest;strokeColor=inherit;fontSize=16;" vertex="1" parent="sJoOIRErsdjMJZ4PqJDB-253">
          <mxGeometry y="30" width="340" height="30" as="geometry" />
        </mxCell>
        <mxCell id="sJoOIRErsdjMJZ4PqJDB-255" value="&lt;b&gt;IdVeterinario&lt;/b&gt;" style="shape=partialRectangle;html=1;whiteSpace=wrap;connectable=0;fillColor=none;top=0;left=0;bottom=0;right=0;overflow=hidden;pointerEvents=1;strokeColor=inherit;fontSize=16;" vertex="1" parent="sJoOIRErsdjMJZ4PqJDB-254">
          <mxGeometry width="110" height="30" as="geometry">
            <mxRectangle width="110" height="30" as="alternateBounds" />
          </mxGeometry>
        </mxCell>
        <mxCell id="sJoOIRErsdjMJZ4PqJDB-256" value="&lt;b&gt;IdPet&lt;/b&gt;" style="shape=partialRectangle;html=1;whiteSpace=wrap;connectable=0;fillColor=none;top=0;left=0;bottom=0;right=0;overflow=hidden;pointerEvents=1;strokeColor=inherit;fontSize=16;" vertex="1" parent="sJoOIRErsdjMJZ4PqJDB-254">
          <mxGeometry x="110" width="50" height="30" as="geometry">
            <mxRectangle width="50" height="30" as="alternateBounds" />
          </mxGeometry>
        </mxCell>
        <mxCell id="sJoOIRErsdjMJZ4PqJDB-257" value="&lt;b&gt;IdAtendimento&lt;/b&gt;" style="shape=partialRectangle;html=1;whiteSpace=wrap;connectable=0;fillColor=none;top=0;left=0;bottom=0;right=0;overflow=hidden;pointerEvents=1;strokeColor=inherit;fontSize=16;" vertex="1" parent="sJoOIRErsdjMJZ4PqJDB-254">
          <mxGeometry x="160" width="120" height="30" as="geometry">
            <mxRectangle width="120" height="30" as="alternateBounds" />
          </mxGeometry>
        </mxCell>
        <mxCell id="sJoOIRErsdjMJZ4PqJDB-258" value="&lt;b&gt;Data&lt;/b&gt;" style="shape=partialRectangle;html=1;whiteSpace=wrap;connectable=0;fillColor=none;top=0;left=0;bottom=0;right=0;overflow=hidden;pointerEvents=1;strokeColor=inherit;fontSize=16;" vertex="1" parent="sJoOIRErsdjMJZ4PqJDB-254">
          <mxGeometry x="280" width="60" height="30" as="geometry">
            <mxRectangle width="60" height="30" as="alternateBounds" />
          </mxGeometry>
        </mxCell>
        <mxCell id="sJoOIRErsdjMJZ4PqJDB-260" style="shape=tableRow;horizontal=0;startSize=0;swimlaneHead=0;swimlaneBody=0;top=0;left=0;bottom=0;right=0;collapsible=0;dropTarget=0;fillColor=none;points=[[0,0.5],[1,0.5]];portConstraint=eastwest;strokeColor=inherit;fontSize=16;" vertex="1" parent="sJoOIRErsdjMJZ4PqJDB-253">
          <mxGeometry y="60" width="340" height="30" as="geometry" />
        </mxCell>
        <mxCell id="sJoOIRErsdjMJZ4PqJDB-261" value="1" style="shape=partialRectangle;html=1;whiteSpace=wrap;connectable=0;fillColor=none;top=0;left=0;bottom=0;right=0;overflow=hidden;strokeColor=inherit;fontSize=16;" vertex="1" parent="sJoOIRErsdjMJZ4PqJDB-260">
          <mxGeometry width="110" height="30" as="geometry">
            <mxRectangle width="110" height="30" as="alternateBounds" />
          </mxGeometry>
        </mxCell>
        <mxCell id="sJoOIRErsdjMJZ4PqJDB-262" value="1" style="shape=partialRectangle;html=1;whiteSpace=wrap;connectable=0;fillColor=none;top=0;left=0;bottom=0;right=0;overflow=hidden;strokeColor=inherit;fontSize=16;" vertex="1" parent="sJoOIRErsdjMJZ4PqJDB-260">
          <mxGeometry x="110" width="50" height="30" as="geometry">
            <mxRectangle width="50" height="30" as="alternateBounds" />
          </mxGeometry>
        </mxCell>
        <mxCell id="sJoOIRErsdjMJZ4PqJDB-263" value="1" style="shape=partialRectangle;html=1;whiteSpace=wrap;connectable=0;fillColor=none;top=0;left=0;bottom=0;right=0;overflow=hidden;strokeColor=inherit;fontSize=16;" vertex="1" parent="sJoOIRErsdjMJZ4PqJDB-260">
          <mxGeometry x="160" width="120" height="30" as="geometry">
            <mxRectangle width="120" height="30" as="alternateBounds" />
          </mxGeometry>
        </mxCell>
        <mxCell id="sJoOIRErsdjMJZ4PqJDB-264" value="dd/mm" style="shape=partialRectangle;html=1;whiteSpace=wrap;connectable=0;fillColor=none;top=0;left=0;bottom=0;right=0;overflow=hidden;strokeColor=inherit;fontSize=16;" vertex="1" parent="sJoOIRErsdjMJZ4PqJDB-260">
          <mxGeometry x="280" width="60" height="30" as="geometry">
            <mxRectangle width="60" height="30" as="alternateBounds" />
          </mxGeometry>
        </mxCell>
        <mxCell id="sJoOIRErsdjMJZ4PqJDB-266" style="shape=tableRow;horizontal=0;startSize=0;swimlaneHead=0;swimlaneBody=0;top=0;left=0;bottom=0;right=0;collapsible=0;dropTarget=0;fillColor=none;points=[[0,0.5],[1,0.5]];portConstraint=eastwest;strokeColor=inherit;fontSize=16;" vertex="1" parent="sJoOIRErsdjMJZ4PqJDB-253">
          <mxGeometry y="90" width="340" height="30" as="geometry" />
        </mxCell>
        <mxCell id="sJoOIRErsdjMJZ4PqJDB-267" value="2" style="shape=partialRectangle;html=1;whiteSpace=wrap;connectable=0;fillColor=none;top=0;left=0;bottom=0;right=0;overflow=hidden;strokeColor=inherit;fontSize=16;" vertex="1" parent="sJoOIRErsdjMJZ4PqJDB-266">
          <mxGeometry width="110" height="30" as="geometry">
            <mxRectangle width="110" height="30" as="alternateBounds" />
          </mxGeometry>
        </mxCell>
        <mxCell id="sJoOIRErsdjMJZ4PqJDB-268" value="2" style="shape=partialRectangle;html=1;whiteSpace=wrap;connectable=0;fillColor=none;top=0;left=0;bottom=0;right=0;overflow=hidden;strokeColor=inherit;fontSize=16;" vertex="1" parent="sJoOIRErsdjMJZ4PqJDB-266">
          <mxGeometry x="110" width="50" height="30" as="geometry">
            <mxRectangle width="50" height="30" as="alternateBounds" />
          </mxGeometry>
        </mxCell>
        <mxCell id="sJoOIRErsdjMJZ4PqJDB-269" value="2" style="shape=partialRectangle;html=1;whiteSpace=wrap;connectable=0;fillColor=none;top=0;left=0;bottom=0;right=0;overflow=hidden;strokeColor=inherit;fontSize=16;" vertex="1" parent="sJoOIRErsdjMJZ4PqJDB-266">
          <mxGeometry x="160" width="120" height="30" as="geometry">
            <mxRectangle width="120" height="30" as="alternateBounds" />
          </mxGeometry>
        </mxCell>
        <mxCell id="sJoOIRErsdjMJZ4PqJDB-270" value="dd/mm" style="shape=partialRectangle;html=1;whiteSpace=wrap;connectable=0;fillColor=none;top=0;left=0;bottom=0;right=0;overflow=hidden;strokeColor=inherit;fontSize=16;" vertex="1" parent="sJoOIRErsdjMJZ4PqJDB-266">
          <mxGeometry x="280" width="60" height="30" as="geometry">
            <mxRectangle width="60" height="30" as="alternateBounds" />
          </mxGeometry>
        </mxCell>
      </root>
    </mxGraphModel>
  </diagram>
  <diagram id="JQuYFBBq_qYmbdG2DJm9" name="Página-2">
    <mxGraphModel dx="1702" dy="484" grid="1" gridSize="10" guides="1" tooltips="1" connect="1" arrows="1" fold="1" page="1" pageScale="1" pageWidth="827" pageHeight="1169" math="0" shadow="0">
      <root>
        <mxCell id="0" />
        <mxCell id="1" parent="0" />
        <mxCell id="ROLv7sTjGFdZkeaZBVmz-1" value="- a clínica contém um endereço; &#xa;- os pets deverão ter nome, data de nascimento, tipo de pet; &#xa;- os pets deverão ter raça; &#xa;- os pets deverão ter donos; &#xa;- a clínica deseja cadastrar seus veterinários e todo atendimento de pet será feito por um veterinário;" style="text;whiteSpace=wrap;html=1;" vertex="1" parent="1">
          <mxGeometry x="134" y="40" width="560" height="110" as="geometry" />
        </mxCell>
        <mxCell id="ROLv7sTjGFdZkeaZBVmz-5" value="" style="edgeStyle=orthogonalEdgeStyle;rounded=0;orthogonalLoop=1;jettySize=auto;html=1;endArrow=none;endFill=0;" edge="1" parent="1" source="ROLv7sTjGFdZkeaZBVmz-2" target="ROLv7sTjGFdZkeaZBVmz-4">
          <mxGeometry relative="1" as="geometry" />
        </mxCell>
        <mxCell id="ROLv7sTjGFdZkeaZBVmz-16" value="" style="edgeStyle=orthogonalEdgeStyle;rounded=0;orthogonalLoop=1;jettySize=auto;html=1;endArrow=none;endFill=0;" edge="1" parent="1" source="ROLv7sTjGFdZkeaZBVmz-2" target="ROLv7sTjGFdZkeaZBVmz-15">
          <mxGeometry relative="1" as="geometry" />
        </mxCell>
        <mxCell id="ROLv7sTjGFdZkeaZBVmz-2" value="Cliníca" style="rounded=0;whiteSpace=wrap;html=1;" vertex="1" parent="1">
          <mxGeometry x="134" y="160" width="120" height="60" as="geometry" />
        </mxCell>
        <mxCell id="ROLv7sTjGFdZkeaZBVmz-19" value="" style="edgeStyle=orthogonalEdgeStyle;rounded=0;orthogonalLoop=1;jettySize=auto;html=1;endArrow=none;endFill=0;" edge="1" parent="1" source="ROLv7sTjGFdZkeaZBVmz-3" target="ROLv7sTjGFdZkeaZBVmz-18">
          <mxGeometry relative="1" as="geometry" />
        </mxCell>
        <mxCell id="ROLv7sTjGFdZkeaZBVmz-3" value="Veterinário" style="rounded=0;whiteSpace=wrap;html=1;" vertex="1" parent="1">
          <mxGeometry x="134" y="360" width="120" height="60" as="geometry" />
        </mxCell>
        <mxCell id="ROLv7sTjGFdZkeaZBVmz-4" value="Endereço" style="ellipse;whiteSpace=wrap;html=1;" vertex="1" parent="1">
          <mxGeometry x="-50" y="165" width="100" height="50" as="geometry" />
        </mxCell>
        <mxCell id="ROLv7sTjGFdZkeaZBVmz-23" value="" style="edgeStyle=orthogonalEdgeStyle;rounded=0;orthogonalLoop=1;jettySize=auto;html=1;endArrow=none;endFill=0;" edge="1" parent="1" source="ROLv7sTjGFdZkeaZBVmz-6" target="ROLv7sTjGFdZkeaZBVmz-21">
          <mxGeometry relative="1" as="geometry" />
        </mxCell>
        <mxCell id="ROLv7sTjGFdZkeaZBVmz-6" value="Pet" style="rounded=0;whiteSpace=wrap;html=1;" vertex="1" parent="1">
          <mxGeometry x="430" y="585" width="120" height="60" as="geometry" />
        </mxCell>
        <mxCell id="ROLv7sTjGFdZkeaZBVmz-26" value="" style="edgeStyle=orthogonalEdgeStyle;rounded=0;orthogonalLoop=1;jettySize=auto;html=1;endArrow=none;endFill=0;" edge="1" parent="1" source="ROLv7sTjGFdZkeaZBVmz-8" target="ROLv7sTjGFdZkeaZBVmz-6">
          <mxGeometry relative="1" as="geometry" />
        </mxCell>
        <mxCell id="ROLv7sTjGFdZkeaZBVmz-8" value="DataNascimento" style="ellipse;whiteSpace=wrap;html=1;" vertex="1" parent="1">
          <mxGeometry x="580" y="589.5" width="100" height="50" as="geometry" />
        </mxCell>
        <mxCell id="ROLv7sTjGFdZkeaZBVmz-25" style="edgeStyle=orthogonalEdgeStyle;rounded=0;orthogonalLoop=1;jettySize=auto;html=1;entryX=0.5;entryY=0;entryDx=0;entryDy=0;endArrow=none;endFill=0;" edge="1" parent="1" source="ROLv7sTjGFdZkeaZBVmz-9" target="ROLv7sTjGFdZkeaZBVmz-6">
          <mxGeometry relative="1" as="geometry" />
        </mxCell>
        <mxCell id="ROLv7sTjGFdZkeaZBVmz-9" value="Nome" style="ellipse;whiteSpace=wrap;html=1;" vertex="1" parent="1">
          <mxGeometry x="580" y="529.5" width="100" height="50" as="geometry" />
        </mxCell>
        <mxCell id="ROLv7sTjGFdZkeaZBVmz-10" style="edgeStyle=orthogonalEdgeStyle;rounded=0;orthogonalLoop=1;jettySize=auto;html=1;exitX=0.5;exitY=1;exitDx=0;exitDy=0;" edge="1" parent="1" source="ROLv7sTjGFdZkeaZBVmz-8" target="ROLv7sTjGFdZkeaZBVmz-8">
          <mxGeometry relative="1" as="geometry" />
        </mxCell>
        <mxCell id="ROLv7sTjGFdZkeaZBVmz-11" value="TipoPet" style="rounded=0;whiteSpace=wrap;html=1;" vertex="1" parent="1">
          <mxGeometry x="400" y="360" width="120" height="60" as="geometry" />
        </mxCell>
        <mxCell id="ROLv7sTjGFdZkeaZBVmz-30" value="" style="edgeStyle=orthogonalEdgeStyle;rounded=0;orthogonalLoop=1;jettySize=auto;html=1;endArrow=none;endFill=0;" edge="1" parent="1" source="ROLv7sTjGFdZkeaZBVmz-12" target="ROLv7sTjGFdZkeaZBVmz-28">
          <mxGeometry relative="1" as="geometry" />
        </mxCell>
        <mxCell id="ROLv7sTjGFdZkeaZBVmz-12" value="Raça" style="rounded=0;whiteSpace=wrap;html=1;" vertex="1" parent="1">
          <mxGeometry x="400" y="880" width="120" height="60" as="geometry" />
        </mxCell>
        <mxCell id="ROLv7sTjGFdZkeaZBVmz-27" style="edgeStyle=orthogonalEdgeStyle;rounded=0;orthogonalLoop=1;jettySize=auto;html=1;entryX=0.5;entryY=1;entryDx=0;entryDy=0;endArrow=none;endFill=0;" edge="1" parent="1" source="ROLv7sTjGFdZkeaZBVmz-13" target="ROLv7sTjGFdZkeaZBVmz-6">
          <mxGeometry relative="1" as="geometry" />
        </mxCell>
        <mxCell id="ROLv7sTjGFdZkeaZBVmz-13" value="Dono" style="ellipse;whiteSpace=wrap;html=1;" vertex="1" parent="1">
          <mxGeometry x="580" y="649.5" width="100" height="50" as="geometry" />
        </mxCell>
        <mxCell id="ROLv7sTjGFdZkeaZBVmz-20" value="" style="edgeStyle=orthogonalEdgeStyle;rounded=0;orthogonalLoop=1;jettySize=auto;html=1;endArrow=none;endFill=0;" edge="1" parent="1" source="ROLv7sTjGFdZkeaZBVmz-14" target="ROLv7sTjGFdZkeaZBVmz-18">
          <mxGeometry relative="1" as="geometry" />
        </mxCell>
        <mxCell id="ROLv7sTjGFdZkeaZBVmz-22" value="" style="edgeStyle=orthogonalEdgeStyle;rounded=0;orthogonalLoop=1;jettySize=auto;html=1;endArrow=none;endFill=0;" edge="1" parent="1" source="ROLv7sTjGFdZkeaZBVmz-14" target="ROLv7sTjGFdZkeaZBVmz-21">
          <mxGeometry relative="1" as="geometry" />
        </mxCell>
        <mxCell id="ROLv7sTjGFdZkeaZBVmz-14" value="Atendimento" style="rounded=0;whiteSpace=wrap;html=1;" vertex="1" parent="1">
          <mxGeometry x="134" y="584.5" width="120" height="60" as="geometry" />
        </mxCell>
        <mxCell id="ROLv7sTjGFdZkeaZBVmz-17" value="" style="edgeStyle=orthogonalEdgeStyle;rounded=0;orthogonalLoop=1;jettySize=auto;html=1;endArrow=none;endFill=0;" edge="1" parent="1" source="ROLv7sTjGFdZkeaZBVmz-15" target="ROLv7sTjGFdZkeaZBVmz-3">
          <mxGeometry relative="1" as="geometry" />
        </mxCell>
        <mxCell id="ROLv7sTjGFdZkeaZBVmz-15" value="Possui" style="rhombus;whiteSpace=wrap;html=1;" vertex="1" parent="1">
          <mxGeometry x="154" y="250" width="80" height="80" as="geometry" />
        </mxCell>
        <mxCell id="ROLv7sTjGFdZkeaZBVmz-18" value="Através" style="rhombus;whiteSpace=wrap;html=1;" vertex="1" parent="1">
          <mxGeometry x="154" y="460" width="80" height="80" as="geometry" />
        </mxCell>
        <mxCell id="ROLv7sTjGFdZkeaZBVmz-21" value="Possui" style="rhombus;whiteSpace=wrap;html=1;" vertex="1" parent="1">
          <mxGeometry x="300" y="575" width="80" height="80" as="geometry" />
        </mxCell>
        <mxCell id="ROLv7sTjGFdZkeaZBVmz-29" value="" style="edgeStyle=orthogonalEdgeStyle;rounded=0;orthogonalLoop=1;jettySize=auto;html=1;endArrow=none;endFill=0;" edge="1" parent="1" source="ROLv7sTjGFdZkeaZBVmz-28" target="ROLv7sTjGFdZkeaZBVmz-6">
          <mxGeometry relative="1" as="geometry">
            <Array as="points">
              <mxPoint x="460" y="660" />
              <mxPoint x="460" y="660" />
            </Array>
          </mxGeometry>
        </mxCell>
        <mxCell id="ROLv7sTjGFdZkeaZBVmz-28" value="Possui" style="rhombus;whiteSpace=wrap;html=1;" vertex="1" parent="1">
          <mxGeometry x="420" y="710" width="80" height="80" as="geometry" />
        </mxCell>
        <mxCell id="ROLv7sTjGFdZkeaZBVmz-32" value="" style="edgeStyle=orthogonalEdgeStyle;rounded=0;orthogonalLoop=1;jettySize=auto;html=1;endArrow=none;endFill=0;" edge="1" parent="1" source="ROLv7sTjGFdZkeaZBVmz-31" target="ROLv7sTjGFdZkeaZBVmz-11">
          <mxGeometry relative="1" as="geometry" />
        </mxCell>
        <mxCell id="ROLv7sTjGFdZkeaZBVmz-34" style="edgeStyle=orthogonalEdgeStyle;rounded=0;orthogonalLoop=1;jettySize=auto;html=1;entryX=0.25;entryY=0;entryDx=0;entryDy=0;endArrow=none;endFill=0;" edge="1" parent="1" source="ROLv7sTjGFdZkeaZBVmz-31" target="ROLv7sTjGFdZkeaZBVmz-6">
          <mxGeometry relative="1" as="geometry" />
        </mxCell>
        <mxCell id="ROLv7sTjGFdZkeaZBVmz-31" value="Possui" style="rhombus;whiteSpace=wrap;html=1;" vertex="1" parent="1">
          <mxGeometry x="420" y="470" width="80" height="80" as="geometry" />
        </mxCell>
        <mxCell id="ROLv7sTjGFdZkeaZBVmz-35" value="1" style="text;html=1;align=center;verticalAlign=middle;resizable=0;points=[];autosize=1;strokeColor=none;fillColor=none;" vertex="1" parent="1">
          <mxGeometry x="205" y="218" width="30" height="30" as="geometry" />
        </mxCell>
        <mxCell id="ROLv7sTjGFdZkeaZBVmz-36" value="N" style="text;html=1;align=center;verticalAlign=middle;resizable=0;points=[];autosize=1;strokeColor=none;fillColor=none;" vertex="1" parent="1">
          <mxGeometry x="205" y="330" width="30" height="30" as="geometry" />
        </mxCell>
        <mxCell id="ROLv7sTjGFdZkeaZBVmz-37" value="1" style="text;html=1;align=center;verticalAlign=middle;resizable=0;points=[];autosize=1;strokeColor=none;fillColor=none;" vertex="1" parent="1">
          <mxGeometry x="195" y="418" width="30" height="30" as="geometry" />
        </mxCell>
        <mxCell id="ROLv7sTjGFdZkeaZBVmz-38" value="N" style="text;html=1;align=center;verticalAlign=middle;resizable=0;points=[];autosize=1;strokeColor=none;fillColor=none;" vertex="1" parent="1">
          <mxGeometry x="195" y="550" width="30" height="30" as="geometry" />
        </mxCell>
        <mxCell id="ROLv7sTjGFdZkeaZBVmz-40" value="1" style="text;html=1;align=center;verticalAlign=middle;resizable=0;points=[];autosize=1;strokeColor=none;fillColor=none;" vertex="1" parent="1">
          <mxGeometry x="405" y="588" width="30" height="30" as="geometry" />
        </mxCell>
        <mxCell id="ROLv7sTjGFdZkeaZBVmz-41" value="N" style="text;html=1;align=center;verticalAlign=middle;resizable=0;points=[];autosize=1;strokeColor=none;fillColor=none;" vertex="1" parent="1">
          <mxGeometry x="250" y="585" width="30" height="30" as="geometry" />
        </mxCell>
        <mxCell id="ROLv7sTjGFdZkeaZBVmz-43" value="1" style="text;html=1;align=center;verticalAlign=middle;resizable=0;points=[];autosize=1;strokeColor=none;fillColor=none;" vertex="1" parent="1">
          <mxGeometry x="460" y="850" width="30" height="30" as="geometry" />
        </mxCell>
        <mxCell id="ROLv7sTjGFdZkeaZBVmz-44" value="N" style="text;html=1;align=center;verticalAlign=middle;resizable=0;points=[];autosize=1;strokeColor=none;fillColor=none;" vertex="1" parent="1">
          <mxGeometry x="455" y="645" width="30" height="30" as="geometry" />
        </mxCell>
        <mxCell id="ROLv7sTjGFdZkeaZBVmz-45" value="N" style="text;html=1;align=center;verticalAlign=middle;resizable=0;points=[];autosize=1;strokeColor=none;fillColor=none;" vertex="1" parent="1">
          <mxGeometry x="455" y="558" width="30" height="30" as="geometry" />
        </mxCell>
        <mxCell id="ROLv7sTjGFdZkeaZBVmz-46" value="1" style="text;html=1;align=center;verticalAlign=middle;resizable=0;points=[];autosize=1;strokeColor=none;fillColor=none;" vertex="1" parent="1">
          <mxGeometry x="455" y="418" width="30" height="30" as="geometry" />
        </mxCell>
      </root>
    </mxGraphModel>
  </diagram>
</mxfile>
